# 
# Wavefront OBJ file
# Converted by the DEEP Exploration Deep Exploration 6.5 x64 6.5.0.9182
# Right Hemisphere, LTD
# http://www.righthemisphere.com/
# 
mtllib Santa_Claus_Hat_convert.mtl
# object Santa_Claus_top_pivot
g Santa_Claus_top_pivot
v 11.48149 4.19467 3.72841
v 11.65725 3.84259 3.70782
v 11.28044 3.12715 5.31097
v 10.82041 4.08927 5.23189
v 10.40070 2.33771 9.22029
v 10.00987 4.15761 7.45322
v 10.63142 3.42575 16.13928
v 9.77931 1.65608 16.98256
v 11.89019 3.36516 9.49973
v 8.97865 3.51580 21.43016
v 8.49207 1.49367 22.23811
v 7.08720 3.70589 24.53584
v 6.87844 1.67641 25.15852
v 4.85598 3.78152 25.97937
v 4.80548 1.76569 26.63397
v 2.46042 3.72845 26.54529
v 2.48034 1.60196 27.12314
v -0.11752 3.61056 26.78470
v -0.02227 1.41470 27.31793
v -2.67266 1.21125 27.35799
v -2.87046 3.37343 26.80856
v -5.22486 0.82088 26.83339
v -5.47765 2.95671 26.14490
v -7.08706 0.20937 25.32002
v -7.26056 2.35403 24.48076
v -9.09383 -0.23097 24.05179
v -9.46312 1.99870 23.23842
v -11.24647 -0.51819 23.13510
v -11.43731 1.69888 21.73880
v -12.21494 1.57412 20.99080
v -11.96208 -0.70721 22.15881
v -11.37869 -2.90488 23.20200
v -10.32289 -2.65768 24.03271
v -10.30951 -5.10125 24.18256
v -9.26770 -4.72896 25.11671
v -9.05983 -6.80648 24.95209
v -8.47805 -6.29609 26.10960
v -7.27541 -8.25780 25.37183
v -7.08330 -7.58129 26.60307
v -5.05909 -8.72894 25.54797
v -5.05467 -7.52843 26.01096
v -2.48220 -8.48267 25.55800
v -2.69607 -7.51677 26.48343
v -0.80715 -6.69343 26.34413
v -0.23253 -7.47817 25.42732
v 0.26275 -5.08149 25.16022
v 1.34127 -5.80004 24.81328
v 1.77761 -3.16729 24.54678
v 2.52992 -3.90897 23.97586
v 2.44724 -1.50589 23.38129
v 0.51169 -1.67482 24.45792
v 3.44429 -1.64489 22.91055
v 3.08156 1.04965 22.24582
v 4.21205 0.79542 21.68924
v 0.72815 1.42314 23.65144
v -1.35799 1.91738 24.51401
v -1.55245 -0.60167 25.30345
v -0.21481 0.05300 25.34377
v -0.35896 2.28933 25.12691
v 1.68758 1.71864 23.54398
v 1.83528 -0.23199 24.52350
v 4.02285 0.97091 21.90451
v 3.81123 -1.09833 23.35486
v 5.15703 -0.23523 24.20595
v 5.86674 1.25343 22.37831
v 4.85036 1.89777 24.96524
v 5.99644 2.82033 23.16524
v 6.47909 2.44186 24.66873
v 6.71693 4.20204 23.99330
v 7.36479 2.49803 21.66812
v 8.06775 4.12682 21.08141
v 7.80104 2.68573 17.56264
v 8.46662 4.35504 15.78506
v 8.69402 2.40183 13.00380
v 9.30938 4.26631 10.24133
v -8.36131 -2.29003 24.97525
v -7.78572 -4.10458 26.25461
v -7.30802 -5.65166 27.40120
v -6.31373 -6.71985 27.74207
v -5.07520 -5.69992 26.74963
v -2.96867 -5.67926 26.78369
v -1.42532 -5.05990 26.87263
v -1.39888 -3.88528 25.63315
v -1.35730 -2.44186 26.48596
v 8.15996 0.75014 18.36185
v 0.03607 -1.47459 26.53127
v 1.75825 -1.69954 26.08211
v 7.21520 -0.31943 23.01314
v 6.40414 -0.19420 25.90358
v 4.73651 -0.19751 27.38396
v 2.51822 -0.58369 27.94753
v 0.09379 -0.76547 28.02036
v -2.39025 -0.89805 27.93732
v -4.80093 -1.17480 27.52582
v -6.73744 -1.74961 26.36978
v 3.21159 -2.63723 25.06978
v 3.82298 -1.34699 25.86478
v 4.45677 0.40817 26.64157
v 5.92548 0.64326 25.05045
v 6.73970 0.89064 22.29297
v 7.39164 1.35074 19.52379
v -6.20038 -3.56684 27.36453
v -1.25801 -3.68333 26.95578
v -0.41098 -3.06411 27.13396
v 0.72008 -3.58571 26.87181
v 2.29933 -4.09112 26.73398
v 2.81652 -2.28402 27.51070
v 4.43097 -1.37952 27.02400
v 5.64684 -1.04775 25.36488
v -5.71321 -5.14175 28.33580
v -4.89111 -6.45914 28.55219
v -3.92795 -5.52991 27.89435
v -3.13980 -3.88056 27.34886
v 5.77192 -1.45033 26.32054
v 4.72386 -1.93817 27.64769
v 2.60413 -2.80531 28.92326
v -0.01953 -2.76842 28.83804
v -2.23330 -2.82127 28.57861
v -4.31966 -3.07939 28.18074
v -3.97972 -4.56179 28.86035
v -1.55671 -4.29849 27.87601
v -0.18378 -5.22716 27.62247
v 1.35210 -4.94941 28.40602
v -0.55762 -4.48132 29.22272
v -2.28437 -4.24673 29.11563
v -3.40463 -5.89428 29.00780
v -2.53857 -5.75319 28.16542
v -1.18476 -5.79915 28.75279
v -2.21192 -5.35337 29.22632
v 11.79057 4.41868 5.39482
v 11.86960 4.24350 3.70561
v -11.14126 4.03770 21.03076
v -12.00111 3.79423 20.03871
v -8.94069 4.25484 22.59152
v -6.99496 4.72373 24.07596
v -5.28727 5.22326 25.67720
v -2.72508 5.56882 26.29865
v -0.08307 5.74463 26.39613
v 2.38156 5.77770 26.20924
v 4.68182 5.76243 25.68645
v 6.91228 5.72457 24.36810
v 8.98685 5.54839 21.83395
v 10.83676 5.32708 17.16246
v 11.51303 5.12118 9.35800
v 12.26587 3.55292 5.57047
v 4.46621 3.42735 20.36665
v 3.36364 3.75222 21.27095
v 3.78451 6.24202 19.12265
v 3.12985 6.14300 20.57292
v 2.79418 8.03173 18.37700
v 1.65306 8.11101 19.40363
v 1.32277 9.62986 17.77078
v 0.76506 10.09132 19.26906
v -0.66208 11.06243 17.31468
v -1.11192 10.84869 18.77904
v -2.89151 11.64322 17.09866
v -2.94440 10.38742 18.22217
v -5.23885 11.33069 17.10239
v -5.25821 10.41539 18.29210
v -7.37534 10.63086 18.70087
v -7.76287 10.28671 17.36627
v -9.02171 8.76748 18.94177
v -9.89355 8.50566 18.02171
v -10.12508 6.25510 19.82092
v -11.34467 6.12357 19.06570
v 9.93703 5.86974 13.20352
v 8.97076 5.76924 17.64978
v 8.46011 5.65531 21.57121
v 6.80079 5.33466 22.69217
v 6.65421 3.67993 21.12830
v 5.50496 2.61614 23.04329
v 4.18382 2.96743 22.28596
v 1.85615 3.71541 22.83740
v -0.29925 4.43709 24.16238
v -1.70351 4.44457 24.00426
v 0.28234 4.22581 23.30168
v -8.03265 6.61049 21.57823
v -6.75643 7.08457 23.65356
v -4.94462 7.44204 25.27681
v -2.53902 7.66138 25.97427
v -0.05400 7.71943 26.17894
v 2.21631 7.58997 25.98923
v 4.25392 7.50295 25.41028
v 6.24359 7.53980 24.22925
v 8.25662 7.69158 21.83160
v 10.08870 6.87826 18.14072
v 9.28707 6.61427 19.52806
v 8.34901 7.00226 21.29703
v -0.18422 6.43675 22.09624
v -0.18379 8.43886 21.45064
v -0.06697 10.16638 21.65752
v -1.60862 9.65979 20.77853
v -3.38296 8.74908 20.21744
v -5.34289 9.13828 20.42311
v -6.58729 10.13955 20.88136
v -7.78609 8.83271 21.21074
v -6.33486 9.23762 23.11679
v 7.12504 6.31737 20.73241
v 5.68421 5.23393 21.68304
v -1.40620 6.73921 23.56853
v 0.45571 6.31213 23.49464
v 2.22053 5.30773 23.48230
v 2.94872 3.61319 24.28279
v 4.69408 4.27309 23.98927
v -0.21395 8.25044 23.40787
v -4.23795 9.20936 24.37344
v -2.13138 9.29721 24.80745
v -0.07880 9.21382 25.10248
v 1.82693 8.99562 24.74500
v 3.37445 8.65941 23.98021
v 4.97936 8.21135 22.89154
v -0.68039 8.96743 23.50275
v -1.83712 8.25055 22.49762
v -3.58539 7.53645 22.01567
v -5.20321 8.20986 22.50923
v 1.04253 7.22205 24.20741
v 1.46166 5.69081 24.92343
v 2.10234 4.78139 25.33115
v 3.35728 5.95147 24.32471
v 4.79503 6.57371 22.33777
v 6.47191 7.58522 21.17551
v -0.45755 7.18067 24.52950
v -3.96378 8.10552 23.91177
v -2.13518 8.06968 24.47969
v -0.20469 7.46487 25.34065
v 1.71893 7.63673 24.72485
v 3.07925 7.47806 23.69577
v 4.21057 7.48292 22.68614
v -1.71770 6.83364 23.82423
v -3.43639 6.72871 23.73480
v -0.02944 5.81320 25.19305
v 0.92200 5.91834 25.67314
v 1.95439 6.52960 25.05789
v -1.53376 5.99786 25.30724
v -2.51385 6.97470 24.77931
v 11.90045 4.27943 3.26851
v 11.91919 4.10163 3.28076
v 11.73138 4.24121 3.30347
v 12.07760 3.89525 3.66788
v 11.77044 4.08007 3.35724
v -12.43414 1.54067 20.79166
v -12.17468 -0.77092 21.90990
v -11.59302 -2.99520 22.86003
v -10.60192 -5.23080 23.91911
v -9.20293 -6.95419 24.63402
v -7.35132 -8.33184 25.07472
v -5.06289 -8.97611 25.33116
v -2.45413 -8.66023 25.22269
v -0.22374 -7.62932 25.09450
v 1.54386 -6.01088 24.61203
v 2.75480 -4.09881 23.81041
v 3.67333 -1.76127 22.56772
v 4.46091 0.73949 21.39545
v -12.25508 3.74686 19.82118
v 4.59172 3.25712 19.76981
v 4.08083 6.11416 18.57712
v 3.07429 7.94294 17.97255
v 1.40023 9.48796 17.41328
v -0.58772 10.93078 17.02374
v -2.87624 11.76203 16.81207
v -5.25762 11.33834 16.82027
v -7.76226 10.14689 17.06354
v -10.05960 8.45086 17.83351
v -11.54334 6.04474 18.82277
# 264 verticies
vt 0.10580 0.15059
vt 0.08912 0.15162
vt 0.08915 0.13789
vt 0.10464 0.13631
vt 0.08853 0.12537
vt 0.10206 0.12317
vt 0.11984 0.13495
vt 0.12161 0.14962
vt 0.10692 0.16478
vt 0.08959 0.16566
vt 0.07262 0.15206
vt 0.07382 0.13869
vt 0.08706 0.11613
vt 0.09681 0.11336
vt 0.11796 0.11982
vt 0.07542 0.12594
vt 0.13417 0.13595
vt 0.13659 0.14912
vt 0.12316 0.16349
vt 0.10871 0.17838
vt 0.09218 0.17966
vt 0.07252 0.16625
vt 0.05938 0.13840
vt 0.05717 0.15229
vt 0.10746 0.10864
vt 0.07685 0.11571
vt 0.08654 0.10934
vt 0.09225 0.10584
vt 0.13342 0.12462
vt 0.06249 0.12544
vt 0.14797 0.13646
vt 0.15257 0.14881
vt 0.13863 0.16246
vt 0.12399 0.17667
vt 0.11040 0.19094
vt 0.09510 0.19276
vt 0.07555 0.18061
vt 0.05683 0.16685
vt 0.04574 0.13852
vt 0.04213 0.15284
vt 0.10011 0.10207
vt 0.11740 0.10355
vt 0.12587 0.11463
vt 0.07917 0.10679
vt 0.06573 0.11403
vt 0.08483 0.10202
vt 0.13738 0.11996
vt 0.14377 0.12842
vt 0.05014 0.12494
vt 0.16700 0.13572
vt 0.17333 0.14949
vt 0.15532 0.16219
vt 0.13852 0.17522
vt 0.12415 0.18840
vt 0.09832 0.20520
vt 0.11168 0.20271
vt 0.07965 0.19455
vt 0.06056 0.18184
vt 0.04092 0.16781
vt 0.02560 0.15342
vt 0.03090 0.13856
vt 0.10968 0.09506
vt 0.09372 0.09453
vt 0.13702 0.10789
vt 0.13038 0.09930
vt 0.06972 0.10527
vt 0.05438 0.11310
vt 0.07645 0.09820
vt 0.14640 0.11501
vt 0.14986 0.12751
vt 0.03737 0.12379
vt 0.19741 0.14267
vt 0.20692 0.15311
vt 0.17796 0.16315
vt 0.15455 0.17505
vt 0.13694 0.18657
vt 0.12437 0.20070
vt 0.11365 0.21392
vt 0.09919 0.21295
vt 0.08429 0.20739
vt 0.06456 0.19687
vt 0.04492 0.18248
vt 0.02366 0.16946
vt 0.02099 0.13871
vt 0.01646 0.15426
vt 0.10316 0.08679
vt 0.12212 0.08934
vt 0.08497 0.09078
vt 0.14990 0.10049
vt 0.14318 0.09315
vt 0.05948 0.10446
vt 0.04230 0.11217
vt 0.06761 0.09579
vt 0.15872 0.11025
vt 0.15838 0.12062
vt 0.17444 0.12969
vt 0.02715 0.12333
vt 0.19202 0.13509
vt 0.23266 0.14744
vt 0.25559 0.15859
vt 0.21241 0.16525
vt 0.17460 0.17624
vt 0.15117 0.18655
vt 0.13579 0.19932
vt 0.12607 0.20951
vt 0.10724 0.22372
vt 0.09941 0.22060
vt 0.08679 0.21538
vt 0.06856 0.21122
vt 0.04914 0.19899
vt 0.02711 0.18443
vt 0.01550 0.17047
vt 0.01840 0.13880
vt 0.01438 0.15444
vt 0.09524 0.08336
vt 0.11360 0.08155
vt 0.13319 0.08226
vt 0.07607 0.08570
vt 0.15609 0.08447
vt 0.16336 0.09355
vt 0.04909 0.10105
vt 0.03279 0.11057
vt 0.05685 0.08970
vt 0.16987 0.10201
vt 0.16773 0.11296
vt 0.18407 0.12295
vt 0.02462 0.12319
vt 0.20725 0.13369
vt 0.25382 0.14435
vt 0.27023 0.15201
vt 0.25419 0.16878
vt 0.20557 0.17692
vt 0.17124 0.19096
vt 0.14871 0.19817
vt 0.13716 0.20705
vt 0.12195 0.22355
vt 0.12824 0.21696
vt 0.09186 0.22279
vt 0.09989 0.22998
vt 0.11552 0.22630
vt 0.07565 0.21974
vt 0.05257 0.21249
vt 0.03176 0.20056
vt 0.01778 0.18552
vt 0.01364 0.17072
vt 0.08540 0.07851
vt 0.10350 0.07698
vt 0.12304 0.07285
vt 0.14293 0.07280
vt 0.06551 0.07813
vt 0.16300 0.24452
vt 0.15369 0.23673
vt 0.16074 0.23064
vt 0.16518 0.23529
vt 0.04081 0.09677
vt 0.03051 0.10999
vt 0.05006 0.08461
vt 0.16602 0.21881
vt 0.16760 0.23029
vt 0.17733 0.10673
vt 0.19338 0.11584
vt 0.22260 0.12932
vt 0.26753 0.18883
vt 0.24989 0.19363
vt 0.22958 0.18613
vt 0.25444 0.17904
vt 0.28398 0.16061
vt 0.27994 0.16536
vt 0.27798 0.17123
vt 0.19766 0.18601
vt 0.16317 0.19911
vt 0.14667 0.20440
vt 0.13878 0.21744
vt 0.13089 0.22801
vt 0.10810 0.23468
vt 0.08283 0.22895
vt 0.09139 0.23869
vt 0.12403 0.23161
vt 0.05768 0.22232
vt 0.06473 0.22940
vt 0.03591 0.21785
vt 0.02256 0.20084
vt 0.01561 0.18572
vt 0.07490 0.06983
vt 0.09459 0.07223
vt 0.11510 0.06833
vt 0.13318 0.06296
vt 0.14102 0.24353
vt 0.15031 0.25315
vt 0.05835 0.07243
vt 0.14924 0.22496
vt 0.14087 0.23177
vt 0.03879 0.09635
vt 0.04843 0.08351
vt 0.16186 0.21306
vt 0.17530 0.21504
vt 0.17735 0.22599
vt 0.18777 0.21149
vt 0.18030 0.20454
vt 0.21617 0.19949
vt 0.20222 0.19370
vt 0.27952 0.17662
vt 0.28222 0.18222
vt 0.29065 0.17092
vt 0.28952 0.17111
vt 0.28939 0.17183
vt 0.17626 0.19649
vt 0.18914 0.19194
vt 0.15228 0.20817
vt 0.16979 0.20396
vt 0.10069 0.24598
vt 0.11614 0.23989
vt 0.08129 0.24874
vt 0.07325 0.23856
vt 0.13196 0.23887
vt 0.04487 0.23050
vt 0.05331 0.24024
vt 0.02678 0.21868
vt 0.02055 0.20098
vt 0.06914 0.06215
vt 0.08582 0.06122
vt 0.10662 0.05612
vt 0.12975 0.06046
vt 0.14285 0.26450
vt 0.13104 0.25534
vt 0.05647 0.07087
vt 0.28929 0.17240
vt 0.29030 0.17290
vt 0.29007 0.17156
vt 0.29087 0.17208
vt 0.28999 0.17191
vt 0.10623 0.24817
vt 0.08999 0.25510
vt 0.12144 0.24526
vt 0.07061 0.25959
vt 0.06286 0.25091
vt 0.04680 0.24662
vt 0.03652 0.23391
vt 0.02512 0.21883
vt 0.06751 0.06054
vt 0.08056 0.05337
vt 0.09600 0.04835
vt 0.12544 0.04920
vt 0.14131 0.26987
vt 0.12774 0.26186
vt 0.28993 0.17224
vt 0.09837 0.26031
vt 0.11563 0.25550
vt 0.08076 0.26758
vt 0.06423 0.26704
vt 0.05536 0.25748
vt 0.04538 0.24760
vt 0.03466 0.23488
vt 0.07949 0.05162
vt 0.09058 0.04107
vt 0.10576 0.03935
vt 0.12250 0.03050
vt 0.13864 0.28295
vt 0.12372 0.27291
vt 0.10969 0.26522
vt 0.08954 0.27801
vt 0.07591 0.27710
vt 0.05391 0.25869
vt 0.06327 0.26884
vt 0.08940 0.03931
vt 0.10353 0.03046
vt 0.12080 0.01918
vt 0.11530 0.29534
vt 0.13171 0.30093
vt 0.10279 0.28810
vt 0.08341 0.29155
vt 0.07466 0.27891
vt 0.10284 0.02786
vt 0.12055 0.01671
vt 0.12740 0.31144
vt 0.10763 0.30979
vt 0.09295 0.30214
vt 0.08186 0.29444
vt 0.10583 0.31325
vt 0.12637 0.31353
vt 0.09103 0.30576
# 281 texture verticies
vn 0.00875 0.28413 0.95875
vn -0.11298 0.24739 0.96231
vn -0.11684 0.28200 0.95227
vn -0.04166 0.33704 0.94057
vn -0.15320 0.34372 0.92649
vn 0.01265 0.23783 0.97122
vn 0.11195 0.33590 0.93522
vn 0.11789 0.30250 0.94583
vn 0.03831 0.21493 0.97588
vn -0.15961 0.22882 0.96030
vn -0.44305 0.23070 0.86631
vn -0.36242 0.24015 0.90054
vn -0.11355 0.22554 0.96759
vn 0.25435 -0.28923 0.92285
vn 0.65299 -0.50905 0.56078
vn -0.30248 0.28538 0.90943
vn 0.46305 0.19370 0.86491
vn 0.40269 0.26878 0.87498
vn 0.16707 0.21925 0.96126
vn 0.02210 0.15544 0.98760
vn -0.13936 0.18189 0.97339
vn -0.56712 0.21340 0.79551
vn -0.62347 0.22904 0.74754
vn -0.61838 0.21975 0.75453
vn 0.40314 -0.68413 0.60782
vn -0.27525 0.21809 0.93631
vn -0.01353 -0.16853 0.98560
vn 0.27518 -0.95437 0.11600
vn 0.51438 -0.50112 0.69591
vn -0.53533 0.27705 0.79791
vn 0.85141 -0.20271 0.48374
vn 0.77986 0.02465 0.62547
vn 0.43832 0.20000 0.87629
vn 0.13418 0.15485 0.97878
vn 0.01509 0.41696 0.90880
vn -0.20123 0.38709 0.89982
vn -0.46424 0.21493 0.85924
vn -0.61255 0.24694 0.75087
vn -0.57737 0.26264 0.77309
vn -0.47690 0.21015 0.85347
vn -0.06476 -0.78009 -0.62231
vn 0.66798 -0.69818 -0.25756
vn 0.73789 -0.67356 -0.04281
vn -0.06514 -0.75828 0.64866
vn -0.45232 0.10417 0.88575
vn 0.14071 -0.69532 -0.70479
vn -0.07794 -0.75761 -0.64804
vn 0.60583 -0.79318 0.06187
vn -0.61893 0.26255 0.74026
vn 0.53927 -0.84107 0.04234
vn 0.86531 -0.41131 0.28648
vn 0.71468 0.12811 0.68762
vn 0.35096 0.19512 0.91583
vn 0.21285 0.41948 0.88246
vn 0.09115 0.98574 -0.14142
vn 0.24953 0.65255 -0.71548
vn -0.48257 0.37295 0.79248
vn -0.70685 0.24701 0.66284
vn -0.53632 0.30371 0.78748
vn -0.63595 0.22093 0.73943
vn -0.56131 0.15379 0.81319
vn -0.33611 -0.29578 -0.89417
vn 0.06230 -0.58606 -0.80787
vn 0.89222 -0.44498 0.07704
vn 0.04631 -0.77652 -0.62839
vn 0.04978 -0.88689 0.45929
vn -0.63325 0.02473 0.77355
vn 0.37359 -0.87808 -0.29900
vn 0.24151 -0.50260 -0.83010
vn -0.33328 -0.76087 -0.55677
vn -0.65855 0.09748 0.74620
vn -0.18921 -0.95563 -0.22579
vn 0.68529 -0.72558 0.06264
vn 0.90063 -0.09340 0.42444
vn 0.67944 0.15992 0.71609
vn 0.35073 0.66644 0.65791
vn -0.26080 0.80112 -0.53869
vn 0.04529 -0.10174 -0.99378
vn 0.35535 -0.06260 -0.93264
vn 0.10014 0.99201 0.07677
vn -0.76453 0.22929 0.60243
vn -0.57003 0.38104 0.72793
vn -0.64264 0.33309 0.68998
vn -0.74423 0.01404 0.66777
vn -0.78489 0.14041 0.60351
vn 0.02223 -0.44630 -0.89461
vn -0.48333 -0.39202 -0.78276
vn 0.52007 -0.78744 -0.33086
vn 0.84758 -0.52788 -0.05430
vn 0.04514 -0.66763 -0.74313
vn -0.07606 -0.72437 0.68520
vn -0.71214 -0.23067 0.66306
vn 0.37939 -0.80472 0.45661
vn 0.79284 -0.58981 -0.15338
vn -0.76908 -0.08928 -0.63288
vn -0.94746 -0.09405 -0.30573
vn -0.70652 -0.09504 0.70128
vn -0.92675 -0.28230 -0.24789
vn -0.84719 -0.44820 -0.28528
vn -0.22379 -0.95222 -0.20782
vn 0.93379 -0.31031 0.17817
vn 0.86041 0.09182 0.50126
vn 0.47280 0.60398 0.64161
vn 0.09042 0.99378 -0.06497
vn -0.43002 -0.19832 -0.88077
vn 0.36884 0.48354 -0.79382
vn 0.58752 -0.15061 -0.79507
vn 0.45156 0.34700 -0.82200
vn -0.36389 0.80153 0.47447
vn -0.72010 0.38022 0.58042
vn -0.63972 0.41982 0.64383
vn -0.71214 0.29779 0.63575
vn -0.81938 -0.00410 0.57324
vn -0.77031 0.13910 0.62231
vn 0.63477 -0.72334 -0.27176
vn -0.01806 -0.47713 -0.87865
vn -0.50977 -0.51718 -0.68750
vn 0.13132 -0.34601 0.92899
vn -0.06067 -0.24660 -0.96722
vn 0.88609 -0.29885 -0.35432
vn -0.27195 -0.75768 0.59327
vn -0.68936 -0.51860 0.50581
vn 0.08180 -0.54328 0.83556
vn 0.90660 -0.42181 -0.01275
vn -0.57042 -0.26426 -0.77768
vn -0.94154 0.24606 -0.23014
vn -0.71297 -0.09519 0.69470
vn -0.96990 0.19598 -0.14451
vn -0.95906 0.14418 -0.24377
vn -0.75413 0.58617 -0.29612
vn 0.92167 -0.36766 0.12392
vn 0.96005 0.06759 0.27155
vn 0.60486 0.78342 0.14283
vn -0.13023 0.90337 -0.40861
vn -0.60133 0.01181 -0.79891
vn 0.04560 0.23230 -0.97158
vn -0.48661 -0.28969 -0.82419
vn 0.62058 0.70698 -0.33922
vn -0.34867 0.66932 0.65608
vn 0.07762 0.99698 -0.00245
vn 0.62665 0.77928 -0.00658
vn -0.77156 0.45551 0.44408
vn -0.59751 0.52955 0.60213
vn -0.67009 0.42163 0.61091
vn -0.68819 0.29722 0.66185
vn 0.75417 0.04037 0.65544
vn 0.88802 -0.28482 -0.36097
vn -0.00128 -0.41019 -0.91200
vn -0.58003 -0.27820 -0.76562
vn 0.09433 -0.48126 0.87149
vn 0.18397 0.64500 -0.74171
vn -0.31483 0.18518 -0.93091
vn -0.37483 -0.72167 0.58198
vn -0.67798 -0.38690 0.62503
vn -0.06486 -0.51574 0.85428
vn 0.39334 -0.48263 -0.78253
vn -0.43313 -0.35650 -0.82783
vn -0.92563 0.21433 -0.31189
vn -0.92899 0.34762 -0.12706
vn -0.58900 0.78316 -0.19934
vn 0.71586 0.69689 -0.04346
vn -0.85426 0.41304 -0.31564
vn -0.44597 -0.81058 -0.37958
vn 0.86841 -0.48694 -0.09354
vn -0.32750 0.90332 -0.27705
vn -0.26059 0.45737 -0.85024
vn -0.45081 0.32098 -0.83291
vn -0.57846 -0.20789 -0.78878
vn -0.04746 0.42768 -0.90268
vn 0.03431 0.50200 0.86419
vn -0.00931 0.84004 0.54244
vn -0.55908 0.66368 0.49696
vn 0.65361 0.71546 0.24679
vn 0.18982 0.93388 0.30303
vn 0.33915 0.85018 0.40270
vn -0.72209 0.56239 0.40286
vn -0.62494 0.52242 0.58011
vn -0.63641 0.40909 0.65394
vn 0.44326 -0.23967 0.86376
vn 0.68960 0.12737 0.71290
vn 0.98698 -0.05463 -0.15129
vn -0.17713 -0.25720 -0.94998
vn -0.25307 0.17425 -0.95162
vn 0.17815 -0.72682 0.66333
vn -0.55063 0.12326 -0.82560
vn 0.33919 0.71557 -0.61066
vn -0.51699 -0.75491 0.40352
vn -0.07819 -0.80402 0.58943
vn -0.70937 -0.12928 -0.69288
vn 0.46613 -0.55046 -0.69262
vn -0.87542 0.23475 -0.42252
vn -0.78476 0.60228 -0.14630
vn 0.35993 0.92732 -0.10259
vn -0.89113 0.11345 -0.43934
vn -0.23984 -0.84343 -0.48073
vn 0.96727 -0.07192 -0.24335
vn -0.45472 0.05021 -0.88922
vn -0.88202 0.32869 -0.33763
vn -0.64201 -0.09217 -0.76113
vn 0.22206 -0.18968 -0.95640
vn 0.18110 0.68987 0.70092
vn 0.79971 0.59128 0.10412
vn -0.34610 0.85711 0.38154
vn -0.14583 0.83362 0.53274
vn 0.52214 0.51866 -0.67702
vn -0.25010 0.94676 0.20270
vn 0.00625 0.90700 0.42108
vn -0.62436 0.64752 0.43693
vn -0.69960 0.52404 0.48574
vn 0.53849 -0.50330 0.67581
vn 0.54332 0.11732 0.83129
vn 0.49748 0.21709 0.83988
vn 0.94877 -0.07574 -0.30676
vn -0.06501 -0.19039 -0.97955
vn 0.26270 -0.84343 0.46862
vn 0.19150 0.98132 0.01866
vn -0.57151 -0.50073 -0.65012
vn -0.55721 0.38087 -0.73787
vn 0.06362 -0.53045 -0.84533
vn 0.94596 0.32069 0.04813
vn 0.33886 0.76178 0.55215
vn 0.35574 0.08075 -0.93109
vn -0.09142 0.88243 0.46147
vn -0.09327 0.76085 0.64219
vn -0.23444 0.92304 0.30501
vn -0.49024 0.87080 0.03696
vn -0.66436 0.73563 0.13222
vn 0.53772 -0.66758 0.51498
vn 0.56277 -0.16349 0.81028
vn 0.44898 0.16289 0.87857
vn 0.46659 0.20953 0.85930
vn 0.85760 0.10044 0.50441
vn 0.60146 0.62760 -0.49434
vn 0.86536 0.24521 0.43707
vn 0.86954 -0.22355 -0.44038
vn 0.50221 0.83755 0.21515
vn 0.39843 0.91582 0.05033
vn -0.05740 0.90004 0.43201
vn -0.24462 0.95693 0.15636
vn -0.49450 0.83904 -0.22689
vn 0.58356 -0.13695 0.80044
vn 0.64799 0.05381 0.75974
vn 0.49985 0.25856 0.82662
vn 0.49941 0.24630 0.83062
vn 0.50458 0.29446 0.81160
vn 0.74078 0.18126 0.64683
vn 0.73369 0.49135 0.46934
vn 0.69309 0.71976 0.03973
vn 0.13966 0.97705 0.16081
vn 0.52312 0.82041 -0.23081
vn 0.62156 0.05527 0.78141
vn 0.66129 0.12182 0.74018
vn 0.70456 0.19619 0.68198
vn 0.62780 0.27654 0.72760
vn 0.61683 0.48337 0.62118
vn 0.68303 0.65060 0.33194
vn 0.66757 0.74451 -0.00683
vn 0.77576 0.03615 0.62999
vn 0.76631 0.19623 0.61177
vn 0.85922 0.27919 0.42871
vn 0.79445 0.43416 0.42468
vn 0.68252 0.65240 0.32946
vn 0.92866 0.19590 0.31498
vn 0.84889 0.43118 0.30571
# 264 normals
usemtl fabric_t
f  19/1/1 20/2/2 93/3/3 92/4/4
f  92/4/4 93/3/3 118/5/5 117/6/6
f  91/7/7 17/8/8 19/1/1 92/4/4
f  20/2/2 19/1/1 18/9/9 21/10/10
f  20/2/2 22/11/11 94/12/12 93/3/3
f  125/13/13 124/14/14 117/6/6 118/5/5
f  91/7/7 92/4/4 117/6/6 116/15/15
f  93/3/3 94/12/12 119/16/16 118/5/5
f  90/17/17 15/18/18 17/8/8 91/7/7
f  17/8/8 16/19/19 18/9/9 19/1/1
f  21/10/10 18/9/9 138/20/20 137/21/21
f  21/10/10 23/22/22 22/11/11 20/2/2
f  95/23/23 94/12/12 22/11/11 24/24/24
f  123/25/25 116/15/15 117/6/6 124/14/14
f  118/5/5 119/16/16 120/26/26 125/13/13
f  124/14/14 125/13/13 129/27/27 128/28/28
f  91/7/7 116/15/15 115/29/29 90/17/17
f  94/12/12 95/23/23 102/30/30 119/16/16
f  15/18/18 90/17/17 89/31/31 13/32/32
f  15/18/18 14/33/33 16/19/19 17/8/8
f  18/9/9 16/19/19 139/34/34 138/20/20
f  137/21/21 138/20/20 181/35/35 180/36/36
f  136/37/37 23/22/22 21/10/10 137/21/21
f  24/24/24 22/11/11 23/22/22 25/38/38
f  76/39/39 95/23/23 24/24/24 26/40/40
f  124/14/14 128/28/28 122/41/41 123/25/25
f  106/42/42 107/43/43 116/15/15 123/25/25
f  120/26/26 126/44/44 129/27/27 125/13/13
f  120/26/26 119/16/16 102/30/30 110/45/45
f  126/44/44 127/46/46 128/28/28 129/27/27
f  108/47/47 115/29/29 116/15/15 107/43/43
f  114/48/48 89/31/31 90/17/17 115/29/29
f  102/30/30 95/23/23 76/39/39 77/49/49
f  88/50/50 11/51/51 13/32/32 89/31/31
f  13/32/32 12/52/52 14/33/33 15/18/18
f  16/19/19 14/33/33 140/53/53 139/34/34
f  138/20/20 139/34/34 182/54/54 181/35/35
f  207/55/55 180/36/36 181/35/35 208/56/56
f  136/37/37 137/21/21 180/36/36 179/57/57
f  135/58/58 25/38/38 23/22/22 136/37/37
f  24/24/24 25/38/38 27/59/59 26/40/40
f  26/40/40 28/60/60 33/61/61 76/39/39
f  106/42/42 123/25/25 122/41/41 105/62/62
f  128/28/28 127/46/46 121/63/63 122/41/41
f  97/64/64 107/43/43 106/42/42 96/65/65
f  110/45/45 111/66/66 126/44/44 120/26/26
f  110/45/45 102/30/30 77/49/49 78/67/67
f  126/44/44 111/66/66 112/68/68 127/46/46
f  97/64/64 98/69/69 108/47/47 107/43/43
f  114/48/48 115/29/29 108/47/47 109/70/70
f  89/31/31 114/48/48 109/70/70 88/50/50
f  33/61/61 35/71/71 77/49/49 76/39/39
f  11/51/51 88/50/50 85/72/72 8/73/73
f  13/32/32 11/51/51 10/74/74 12/52/52
f  14/33/33 12/52/52 141/75/75 140/53/53
f  140/53/53 183/76/76 182/54/54 139/34/34
f  181/35/35 182/54/54 209/77/77 208/56/56
f  208/56/56 225/78/78 224/79/79 207/55/55
f  206/80/80 179/57/57 180/36/36 207/55/55
f  178/81/81 135/58/58 136/37/37 179/57/57
f  25/38/38 135/58/58 134/82/82 27/59/59
f  27/59/59 29/83/83 28/60/60 26/40/40
f  32/84/84 33/61/61 28/60/60 31/85/85
f  104/86/86 105/62/62 122/41/41 121/63/63
f  96/65/65 106/42/42 105/62/62 87/87/87
f  127/46/46 112/68/68 113/88/88 121/63/63
f  64/89/89 97/64/64 96/65/65 63/90/90
f  110/45/45 78/67/67 79/91/91 111/66/66
f  77/49/49 35/71/71 37/92/92 78/67/67
f  79/91/91 80/93/93 112/68/68 111/66/66
f  66/94/94 98/69/69 97/64/64 64/89/89
f  99/95/95 109/70/70 108/47/47 98/69/69
f  109/70/70 99/95/95 100/96/96 88/50/50
f  34/97/97 35/71/71 33/61/61 32/84/84
f  100/96/96 101/98/98 85/72/72 88/50/50
f  74/99/99 5/100/100 8/73/73 85/72/72
f  10/74/74 11/51/51 8/73/73 7/101/101
f  10/74/74 142/102/102 141/75/75 12/52/52
f  140/53/53 141/75/75 184/103/103 183/76/76
f  182/54/54 183/76/76 210/104/104 209/77/77
f  225/78/78 208/56/56 209/77/77 226/105/105
f  224/79/79 225/78/78 234/106/106 235/107/107
f  223/108/108 206/80/80 207/55/55 224/79/79
f  197/109/109 178/81/81 179/57/57 206/80/80
f  135/58/58 178/81/81 177/110/110 134/82/82
f  132/111/111 29/83/83 27/59/59 134/82/82
f  28/60/60 29/83/83 30/112/112 31/85/85
f  243/113/113 32/84/84 31/85/85 242/114/114
f  121/63/63 113/88/88 103/115/115 104/86/86
f  86/116/116 87/87/87 105/62/62 104/86/86
f  61/117/117 63/90/90 96/65/65 87/87/87
f  81/118/118 113/88/88 112/68/68 80/93/93
f  64/89/89 63/90/90 62/119/119 65/120/120
f  37/92/92 39/121/121 79/91/91 78/67/67
f  37/92/92 35/71/71 34/97/97 36/122/122
f  79/91/91 39/121/121 41/123/123 80/93/93
f  66/94/94 64/89/89 65/120/120 67/124/124
f  66/94/94 68/125/125 99/95/95 98/69/69
f  68/125/125 70/126/126 100/96/96 99/95/95
f  244/127/127 34/97/97 32/84/84 243/113/113
f  72/128/128 101/98/98 100/96/96 70/126/126
f  101/98/98 72/128/128 74/99/99 85/72/72
f  5/100/100 74/99/99 75/129/129 6/130/130
f  5/100/100 9/131/131 7/101/101 8/73/73
f  143/132/132 142/102/102 10/74/74 7/101/101
f  141/75/75 142/102/102 185/133/133 184/103/103
f  211/134/134 210/104/104 183/76/76 184/103/103
f  209/77/77 210/104/104 227/135/135 226/105/105
f  232/136/136 225/78/78 226/105/105 233/137/137
f  230/138/138 235/107/107 234/106/106 229/139/139
f  224/79/79 235/107/107 230/138/138 223/108/108
f  225/78/78 232/136/136 231/140/140 234/106/106
f  206/80/80 223/108/108 215/141/141 197/109/109
f  178/81/81 197/109/109 196/142/142 177/110/110
f  132/111/111 134/82/82 177/110/110 164/143/143
f  30/112/112 29/83/83 132/111/111 133/144/144
f  31/85/85 30/112/112 241/145/145 242/114/114
f  81/118/118 82/146/146 103/115/115 113/88/88
f  86/116/116 104/86/86 103/115/115 84/147/147
f  86/116/116 58/148/148 61/117/117 87/87/87
f  62/119/119 63/90/90 61/117/117 60/149/149
f  81/118/118 80/93/93 41/123/123 43/150/150
f  62/151/119 172/152/151 171/153/152 65/154/120
f  38/155/153 39/121/121 37/92/92 36/122/122
f  245/156/154 36/122/122 34/97/97 244/127/127
f  41/123/123 39/121/121 38/155/153 40/157/155
f  65/154/120 171/153/152 170/158/156 67/159/124
f  68/125/125 66/94/94 67/124/124 69/160/157
f  69/160/157 71/161/158 70/126/126 68/125/125
f  71/161/158 73/162/159 72/128/128 70/126/126
f  73/162/159 75/129/129 74/99/99 72/128/128
f  6/163/130 75/164/129 166/165/160 144/166/161
f  5/100/100 6/130/130 4/167/162 3/168/163
f  145/169/164 9/131/131 5/100/100 3/168/163
f  7/101/101 9/131/131 144/166/161 143/132/132
f  185/133/133 142/102/102 143/132/132 186/170/165
f  211/134/134 184/103/103 185/133/133 221/171/166
f  227/135/135 210/104/104 211/134/134 228/172/167
f  233/137/137 226/105/105 227/135/135 219/173/168
f  233/137/137 219/173/168 218/174/169 232/136/136
f  229/139/139 234/106/106 231/140/140 222/175/170
f  214/176/171 230/138/138 229/139/139 213/177/172
f  215/141/141 223/108/108 230/138/138 214/176/171
f  232/136/136 218/174/169 217/178/173 231/140/140
f  195/179/174 197/109/109 215/141/141 194/180/175
f  195/179/174 196/142/142 197/109/109
f  162/181/176 164/143/143 177/110/110 196/142/142
f  164/143/143 165/182/177 133/144/144 132/111/111
f  133/144/144 254/183/178 241/145/145 30/112/112
f  81/118/118 43/150/150 44/184/179 82/146/146
f  82/146/146 83/185/180 84/147/147 103/115/115
f  84/147/147 57/186/181 58/148/148 86/116/116
f  60/149/149 61/117/117 58/148/148 59/187/182
f  173/188/183 172/152/151 62/151/119 60/189/149
f  42/190/184 43/150/150 41/123/123 40/157/155
f  204/191/185 171/153/152 172/152/151 203/192/186
f  36/122/122 245/156/154 246/193/187 38/155/153
f  247/194/188 40/157/155 38/155/153 246/193/187
f  171/153/152 204/191/185 199/195/189 170/158/156
f  67/159/124 170/158/156 169/196/190 69/197/157
f  71/198/158 69/197/157 169/196/190 168/199/191
f  73/200/159 71/198/158 168/199/191 167/201/192
f  166/165/160 75/164/129 73/200/159 167/201/192
f  144/166/161 166/165/160 186/170/165 143/132/132
f  6/163/130 144/166/161 130/202/193 4/203/162
f  3/168/163 4/167/162 1/204/194 2/205/195
f  145/169/164 130/202/193 144/166/161 9/131/131
f  145/169/164 3/168/163 2/205/195 239/206/196
f  188/207/197 185/133/133 186/170/165 187/208/198
f  211/134/134 221/171/166 220/209/199 228/172/167
f  221/171/166 185/133/133 188/207/197 198/210/200
f  220/209/199 219/173/168 227/135/135 228/172/167
f  219/173/168 204/191/185 203/192/186 218/174/169
f  212/211/201 213/177/172 229/139/139 222/175/170
f  222/175/170 231/140/140 217/178/173 216/212/202
f  213/177/172 192/213/203 193/214/204 214/176/171
f  215/141/141 214/176/171 193/214/204 194/180/175
f  217/178/173 218/174/169 203/192/186 202/215/205
f  160/216/206 195/179/174 194/180/175 159/217/207
f  160/216/206 162/181/176 196/142/142 195/179/174
f  164/143/143 162/181/176 163/218/208 165/182/177
f  264/219/209 254/183/178 133/144/144 165/182/177
f  45/220/210 44/184/179 43/150/150 42/190/184
f  82/146/146 44/184/179 46/221/211 83/185/180
f  84/147/147 83/185/180 51/222/212 57/186/181
f  58/148/148 57/186/181 56/223/213 59/187/182
f  59/224/182 174/225/214 173/188/183 60/189/149
f  173/188/183 202/215/205 203/192/186 172/152/151
f  247/194/188 248/226/215 42/190/184 40/157/155
f  220/209/199 199/195/189 204/191/185 219/173/168
f  198/210/200 169/196/190 170/158/156 199/195/189
f  188/207/197 168/199/191 169/196/190 198/210/200
f  187/208/198 167/201/192 168/199/191 188/207/197
f  167/201/192 187/208/198 186/170/165 166/165/160
f  131/227/216 1/228/194 4/203/162 130/202/193
f  240/229/217 2/205/195 1/204/194 238/230/218
f  239/206/196 131/227/216 130/202/193 145/169/164
f  237/231/219 239/206/196 2/205/195 240/229/217
f  221/171/166 198/210/200 199/195/189 220/209/199
f  205/232/220 212/211/201 222/175/170 216/212/202
f  191/233/221 192/213/203 213/177/172 212/211/201
f  201/234/222 216/212/202 217/178/173 202/215/205
f  155/235/223 157/236/224 193/214/204 192/213/203
f  157/236/224 159/217/207 194/180/175 193/214/204
f  159/217/207 158/237/225 161/238/226 160/216/206
f  162/181/176 160/216/206 161/238/226 163/218/208
f  163/218/208 263/239/227 264/219/209 165/182/177
f  42/190/184 248/226/215 249/240/228 45/220/210
f  46/221/211 44/184/179 45/220/210 47/241/229
f  83/185/180 46/221/211 48/242/230 51/222/212
f  56/223/213 57/186/181 51/222/212 55/243/231
f  56/244/213 175/245/232 174/225/214 59/224/182
f  174/225/214 201/234/222 202/215/205 173/188/183
f  238/230/218 1/228/194 131/227/216 236/246/233
f  240/229/217 238/230/218 237/231/219
f  239/206/196 237/231/219 236/246/233 131/227/216
f  212/211/201 205/232/220 190/247/234 191/233/221
f  201/234/222 200/248/235 205/232/220 216/212/202
f  153/249/236 155/235/223 192/213/203 191/233/221
f  155/235/223 154/250/237 156/251/238 157/236/224
f  158/237/225 159/217/207 157/236/224 156/251/238
f  158/237/225 261/252/239 262/253/240 161/238/226
f  161/238/226 262/253/240 263/239/227 163/218/208
f  249/240/228 250/254/241 47/241/229 45/220/210
f  48/242/230 46/221/211 47/241/229 49/255/242
f  48/242/230 50/256/243 51/222/212
f  55/243/231 51/222/212 50/256/243 53/257/244
f  55/258/231 176/259/245 175/245/232 56/244/213
f  200/248/235 201/234/222 174/225/214 175/245/232
f  236/246/233 237/231/219 238/230/218
f  189/260/246 190/247/234 205/232/220 200/248/235
f  151/261/247 153/249/236 191/233/221 190/247/234
f  153/249/236 152/262/248 154/250/237 155/235/223
f  260/263/249 156/251/238 154/250/237 259/264/250
f  156/251/238 260/263/249 261/252/239 158/237/225
f  49/255/242 47/241/229 250/254/241 251/265/251
f  49/255/242 52/266/252 50/256/243 48/242/230
f  50/256/243 52/266/252 54/267/253 53/257/244
f  147/268/254 176/259/245 55/258/231 53/269/244
f  200/248/235 175/245/232 176/259/245 189/260/246
f  149/270/255 151/261/247 190/247/234 189/260/246
f  151/261/247 150/271/256 152/262/248 153/249/236
f  259/264/250 154/250/237 152/262/248 258/272/257
f  49/255/242 251/265/251 252/273/258 52/266/252
f  252/273/258 253/274/259 54/267/253 52/266/252
f  54/275/253 146/276/260 147/268/254 53/269/244
f  176/259/245 147/268/254 149/270/255 189/260/246
f  149/270/255 148/277/261 150/271/256 151/261/247
f  258/272/257 152/262/248 150/271/256 257/278/262
f  255/279/263 146/276/260 54/275/253 253/280/259
f  147/268/254 146/276/260 148/277/261 149/270/255
f  150/271/256 148/277/261 256/281/264 257/278/262
f  256/281/264 148/277/261 146/276/260 255/279/263
# object Santa_Claus_fur_pivot
g Santa_Claus_fur_pivot
v -13.64194 1.60322 20.23927
v -13.25777 -1.54336 21.84883
v -12.30762 -1.14657 22.23405
v -12.68812 1.79490 20.76895
v -14.45936 -2.93048 18.17511
v -14.09934 -2.26175 20.39655
v -14.50212 1.08282 18.85513
v -14.86149 0.44163 16.74342
v -14.91182 -0.13490 13.96526
v -14.39603 -3.58571 15.49763
v -13.07398 -6.73984 17.18385
v -13.22062 -5.90857 19.78299
v -11.22938 -8.59335 20.98949
v -11.21967 -9.40820 18.72960
v -8.66240 -11.52213 19.59109
v -8.62552 -10.89504 21.51451
v 5.34035 -6.18574 16.97403
v 3.69716 -9.35280 18.84259
v 2.73579 -9.28941 17.34297
v 3.82202 -5.95744 15.72250
v 6.55659 -2.45427 15.36716
v 4.46945 -2.34827 14.13377
v 6.59790 -0.33695 19.46925
v 5.69888 -3.73676 21.33592
v 5.77761 -4.79953 19.56334
v 6.69983 -1.11236 18.03088
v 6.11635 0.32138 20.83395
v 4.80163 -2.77375 22.61182
v 3.17512 -5.89695 24.16182
v 3.91135 -7.02369 22.99380
v 0.85076 -8.14711 25.08456
v 1.36108 -9.36843 24.20528
v -1.94231 -9.46497 25.54379
v -1.77993 -10.84886 24.56474
v -8.13815 -9.05978 25.16832
v -5.17459 -9.86299 25.50096
v -5.06612 -8.90195 25.54149
v -7.75056 -8.22478 25.26732
v -12.11212 -4.52940 23.19757
v -10.52177 -7.09146 24.45959
v -9.91049 -6.53894 24.67636
v -11.40116 -4.08197 23.57423
v -12.82741 -5.21253 21.87601
v 3.90482 -8.06789 21.03098
v -5.42548 -12.65664 20.35896
v -5.49985 -11.99944 22.11397
v 1.40398 -10.53855 22.20917
v -1.94402 -11.96933 22.49182
v -8.46390 -10.10703 23.68573
v -5.33805 -11.10511 24.18250
v 1.37463 -11.47046 20.08026
v 0.89442 -11.20885 18.39966
v -1.87940 -12.71867 20.61670
v -12.89464 4.82872 18.75986
v -12.23099 4.84883 19.35980
v -14.24486 3.26194 12.92838
v -12.80925 2.53574 11.59647
v -13.14183 -0.64234 12.93115
v -13.69277 4.59432 17.58237
v -14.12342 3.99177 15.70378
v 6.79721 1.45582 13.73785
v 6.63690 2.52701 16.30313
v 5.55056 4.70924 11.86354
v 5.54842 5.74811 14.69580
v 3.47486 7.16491 10.45775
v 3.60575 8.56631 13.29802
v 0.53093 9.27243 9.50970
v 0.73700 10.77798 12.14973
v -12.14331 6.76172 11.62173
v -11.17451 5.61140 10.43117
v 6.20624 3.63254 19.07494
v 5.18966 3.80534 20.04607
v 4.97274 0.65694 21.56711
v 6.49942 3.17426 17.76424
v -11.34788 8.04960 17.49916
v -11.92282 7.98075 16.33327
v -8.95078 10.58805 16.50339
v -9.28412 10.61577 15.21172
v -5.93186 12.26330 15.89523
v -6.02117 12.21387 14.47491
v 0.37710 11.82192 16.25146
v -2.74580 12.71867 15.87363
v -2.87408 12.15059 16.76003
v -0.08955 11.26453 17.19022
v 5.12146 6.60406 17.75720
v 3.15327 9.45739 16.90143
v 2.62957 9.14010 17.78874
v 4.49325 6.55561 18.70123
v 5.38223 6.34393 16.49019
v -12.18682 7.53471 14.47321
v -2.62567 10.50097 9.22362
v -2.53636 11.94259 11.80125
v -9.45978 10.23727 13.12355
v -6.04201 11.74808 12.18164
v 0.70143 11.62223 14.64037
v -2.59496 12.59539 14.25600
v -9.40881 9.13696 10.23763
v -8.91829 7.85704 9.57880
v -5.97366 10.54925 9.48894
v 3.46953 9.27441 15.49011
v -11.00943 -7.88234 23.06445
v -10.48997 -9.30173 17.30037
v -11.82469 -6.82066 15.75543
v -12.80408 -3.87944 14.34465
v -8.30359 -11.09173 18.20932
v 3.79460 -2.28721 23.00839
v 2.41269 -5.26757 24.37610
v 0.43192 -7.43577 25.13612
v -2.10864 -8.60781 25.50494
v -5.25626 -12.32129 18.84328
v -1.90876 -12.51119 18.95457
v 5.05878 0.89885 12.60716
v 4.22909 3.76125 11.10309
v 2.57089 5.98755 10.27968
v 0.02694 7.97547 9.55209
v -10.79081 7.88854 18.08574
v -8.55865 10.25234 17.21358
v -5.72881 11.82072 16.73755
v -2.77144 9.20954 9.10626
v -5.77472 9.23242 9.01857
v -12.25369 1.83063 20.88461
v -11.96061 -1.01517 22.31250
v -11.64501 -0.97875 22.25894
v -11.90043 1.78598 20.85950
v -11.94504 -3.70447 14.64418
v -12.16274 -0.72666 13.46185
v -11.92228 -0.76343 13.62892
v -11.80045 -3.65460 14.71327
v -11.19002 -6.58434 15.68851
v -11.06218 -6.50390 15.69357
v -10.13942 -9.02593 17.00969
v -10.03437 -8.91703 16.93207
v -8.13892 -10.73094 17.88741
v -8.08461 -10.59352 17.78320
v 3.31738 -5.54169 15.73515
v 2.22859 -8.72721 17.09915
v 2.03367 -8.45305 17.05809
v 3.13185 -5.38473 15.73788
v 3.90588 -2.04016 14.35840
v 3.70914 -1.97421 14.38371
v 3.32237 -2.03916 23.11624
v 4.18774 0.77122 21.67950
v 3.80450 0.76175 21.58862
v 3.09624 -1.98628 23.03807
v 2.08151 -4.99359 24.40263
v 1.93166 -4.93933 24.25969
v 0.26840 -7.15596 25.13924
v 0.12307 -6.93720 25.03079
v -2.17409 -8.29125 25.51045
v -2.20653 -8.18410 25.46103
v -5.02605 -8.56120 25.51997
v -5.01757 -8.44273 25.46814
v -7.59704 -7.92354 25.23784
v -7.55103 -7.82666 25.17166
v -11.12650 -3.90772 23.66371
v -10.89823 -3.80487 23.59731
v -5.21060 -11.76988 18.43803
v -5.19263 -11.47261 18.29477
v 0.50393 -10.61191 18.01645
v 0.33707 -10.34076 17.94029
v -2.07251 -11.83876 18.40913
v -2.17976 -11.35836 18.27094
v -11.93136 4.82979 19.60596
v -11.52061 4.78347 19.67148
v -12.10753 2.38999 11.97748
v -11.89547 2.32953 12.12987
v 4.38044 0.95735 13.06711
v 4.22327 0.95741 13.17908
v 3.72443 3.53604 11.52481
v 3.56122 3.46592 11.73964
v 2.26548 5.67777 10.57736
v 2.13213 5.57225 10.73476
v -0.16122 7.61080 9.94987
v -0.20524 7.51559 10.08012
v -10.74539 5.22068 10.58682
v -10.58231 5.10620 10.72484
v 4.35130 3.68566 20.22554
v 3.98644 3.57436 20.17645
v -10.58557 7.79132 18.32562
v -10.25849 7.55617 18.41252
v -8.36407 9.99720 17.48436
v -8.27100 9.84643 17.51865
v -5.60633 11.37162 17.05238
v -5.54585 11.11174 17.07222
v -2.92097 11.63475 17.03789
v -2.93794 11.33134 17.06825
v -0.32157 10.79240 17.43588
v -0.45925 10.45580 17.47093
v 2.24896 8.78440 18.11401
v 1.95357 8.47952 18.16776
v 3.87997 6.30105 19.05043
v 3.49694 6.08792 19.07382
v -2.82245 8.75735 9.45386
v -2.83119 8.60703 9.62814
v -8.58240 7.36847 9.74821
v -8.42602 7.21542 9.91032
v -5.62236 8.68588 9.33998
v -5.54776 8.51162 9.56323
v -9.65839 -6.34375 24.72151
v -9.37566 -6.13531 24.65675
v 10.29523 2.23431 1.23579
v 13.67321 2.23431 1.23579
v 13.67321 2.23431 4.61362
v 10.29523 2.23431 4.61362
v 13.67321 5.61235 4.61362
v 10.29523 5.61235 4.61362
v 13.67321 5.61235 1.23579
v 10.29523 5.61235 1.23579
v 14.05329 1.85420 2.92470
v 11.98422 1.85440 4.99364
v 9.91515 1.85420 2.92470
v 11.98422 1.85440 0.85579
v 14.05317 3.92333 4.99359
v 11.98422 5.99226 4.99364
v 9.91528 3.92333 4.99359
v 14.05329 5.99246 2.92470
v 11.98422 5.99226 0.85579
v 9.91515 5.99246 2.92470
v 14.05317 3.92333 0.85582
v 9.91528 3.92333 0.85582
v 11.98422 0.99574 2.92470
v 11.98422 3.92333 5.84941
v 11.98422 6.85093 2.92470
v 11.98422 3.92333 0.00000
v 14.91182 3.92333 2.92470
v 9.05663 3.92333 2.92470
v 13.92732 1.98021 1.92072
v 13.92732 1.98021 3.92870
v 12.98818 1.98031 4.86777
v 10.98026 1.98031 4.86777
v 10.04113 1.98021 3.92870
v 10.04113 1.98021 1.92072
v 10.98026 1.98031 0.98166
v 12.98818 1.98031 0.98166
v 13.92727 2.91938 4.86772
v 13.92727 4.92729 4.86772
v 12.98818 5.86635 4.86777
v 10.98026 5.86635 4.86777
v 10.04118 4.92729 4.86772
v 10.04118 2.91938 4.86772
v 13.92732 5.86645 3.92870
v 13.92732 5.86645 1.92072
v 12.98818 5.86635 0.98166
v 10.98026 5.86635 0.98166
v 10.04113 5.86645 1.92072
v 10.04113 5.86645 3.92870
v 13.92727 4.92729 0.98169
v 13.92727 2.91938 0.98169
v 10.04118 2.91938 0.98169
v 10.04118 4.92729 0.98169
v 10.83978 1.23020 2.92470
v 11.98422 1.22934 1.77980
v 13.12867 1.23020 2.92470
v 11.98422 1.22934 4.06963
v 10.83979 3.92333 5.61743
v 11.98422 2.77889 5.61743
v 13.12866 3.92333 5.61743
v 11.98422 5.06777 5.61743
v 10.83978 6.61647 2.92470
v 11.98422 6.61732 4.06963
v 13.12867 6.61647 2.92470
v 11.98422 6.61732 1.77980
v 11.98422 2.77889 0.23198
v 10.83979 3.92333 0.23198
v 11.98422 5.06777 0.23198
v 13.12866 3.92333 0.23198
v 14.67825 3.92333 4.06953
v 14.67734 2.77883 2.92470
v 14.67825 3.92333 1.77989
v 14.67734 5.06783 2.92470
v 9.29020 3.92333 4.06953
v 9.29111 5.06783 2.92470
v 9.29020 3.92333 1.77989
v 9.29111 2.77883 2.92470
v 10.90438 1.42817 1.84494
v 13.06406 1.42817 1.84494
v 13.06406 1.42817 4.00449
v 10.90438 1.42817 4.00449
v 10.90437 2.84345 5.41971
v 13.06408 2.84345 5.41969
v 13.06408 5.00321 5.41971
v 10.90437 5.00321 5.41969
v 10.90438 6.41849 4.00449
v 13.06406 6.41849 4.00449
v 13.06406 6.41849 1.84494
v 10.90438 6.41849 1.84494
v 10.90437 2.84345 0.42972
v 10.90437 5.00321 0.42972
v 13.06408 5.00321 0.42972
v 13.06408 2.84346 0.42972
v 14.47933 2.84346 4.00458
v 14.47933 2.84346 1.84485
v 14.47933 5.00320 1.84485
v 14.47933 5.00320 4.00458
v 9.48912 5.00320 4.00458
v 9.48912 5.00320 1.84485
v 9.48912 2.84346 1.84485
v 9.48912 2.84346 4.00458
# 298 verticies
vt 0.87678 0.87443
vt 0.87222 0.87664
vt 0.86957 0.86208
vt 0.87398 0.86076
vt 0.86474 0.87940
vt 0.85469 0.88226
vt 0.85294 0.86709
vt 0.86228 0.86426
vt 0.84186 0.86955
vt 0.84211 0.88524
vt 0.84133 0.85417
vt 0.85249 0.85253
vt 0.84749 0.82540
vt 0.85090 0.83861
vt 0.84087 0.83987
vt 0.83911 0.82655
vt 0.82885 0.77352
vt 0.82601 0.75713
vt 0.83418 0.75756
vt 0.83622 0.77309
vt 0.82481 0.73979
vt 0.83465 0.74101
vt 0.84699 0.74026
vt 0.85376 0.73978
vt 0.85513 0.75504
vt 0.84652 0.75593
vt 0.86032 0.73981
vt 0.86277 0.75488
vt 0.86336 0.77045
vt 0.85598 0.77065
vt 0.86378 0.78405
vt 0.85716 0.78440
vt 0.86372 0.79668
vt 0.85671 0.79743
vt 0.86840 0.82144
vt 0.86456 0.82205
vt 0.86352 0.80979
vt 0.86757 0.80929
vt 0.87171 0.84667
vt 0.86799 0.84783
vt 0.86661 0.83458
vt 0.87000 0.83353
vt 0.86139 0.84995
vt 0.84673 0.77133
vt 0.83883 0.81292
vt 0.84666 0.81259
vt 0.84760 0.78529
vt 0.84708 0.79905
vt 0.85598 0.81094
vt 0.85697 0.82347
vt 0.83061 0.78571
vt 0.83797 0.78580
vt 0.83879 0.79922
vt 0.87147 0.61365
vt 0.86782 0.61232
vt 0.87158 0.59765
vt 0.87597 0.60008
vt 0.83178 0.59730
vt 0.84090 0.59521
vt 0.84163 0.60993
vt 0.83302 0.61175
vt 0.85357 0.60935
vt 0.85380 0.59376
vt 0.86414 0.59499
vt 0.86193 0.61065
vt 0.83500 0.72464
vt 0.84658 0.72478
vt 0.84607 0.71047
vt 0.83344 0.70958
vt 0.84556 0.69656
vt 0.83226 0.69629
vt 0.84507 0.68235
vt 0.83247 0.68187
vt 0.84044 0.62698
vt 0.83237 0.62721
vt 0.86505 0.72534
vt 0.86605 0.74027
vt 0.85917 0.72497
vt 0.85327 0.72467
vt 0.86084 0.62692
vt 0.86623 0.62799
vt 0.86498 0.64288
vt 0.85943 0.64234
vt 0.86373 0.65703
vt 0.85771 0.65668
vt 0.86724 0.68278
vt 0.86253 0.68262
vt 0.86304 0.66977
vt 0.86731 0.66997
vt 0.86594 0.69780
vt 0.86467 0.71194
vt 0.85981 0.71142
vt 0.86145 0.69728
vt 0.85414 0.71087
vt 0.85280 0.62634
vt 0.83394 0.66897
vt 0.84613 0.66950
vt 0.85053 0.64205
vt 0.84800 0.65649
vt 0.85647 0.66979
vt 0.85586 0.68283
vt 0.83762 0.64185
vt 0.83140 0.64118
vt 0.83581 0.65634
vt 0.85528 0.69699
vt 0.85985 0.83644
vt 0.83349 0.85398
vt 0.83405 0.84032
vt 0.83273 0.88325
vt 0.83372 0.86838
vt 0.83300 0.82757
vt 0.86767 0.75516
vt 0.86751 0.77055
vt 0.86725 0.78382
vt 0.86734 0.79626
vt 0.83237 0.81322
vt 0.83199 0.79898
vt 0.82616 0.72394
vt 0.82606 0.70940
vt 0.82610 0.69675
vt 0.82686 0.68230
vt 0.86968 0.62890
vt 0.86866 0.64339
vt 0.86778 0.65751
vt 0.82860 0.66890
vt 0.83010 0.65598
vt 0.87905 0.87298
vt 0.87852 0.87335
vt 0.87549 0.86016
vt 0.87593 0.85999
vt 0.82730 0.88001
vt 0.82929 0.86703
vt 0.82998 0.86726
vt 0.82836 0.88079
vt 0.83014 0.85351
vt 0.83074 0.85357
vt 0.83101 0.84051
vt 0.83174 0.84043
vt 0.83014 0.82797
vt 0.83089 0.82787
vt 0.82436 0.77256
vt 0.82257 0.75624
vt 0.82350 0.75649
vt 0.82569 0.77290
vt 0.82139 0.73925
vt 0.82218 0.73933
vt 0.87094 0.74034
vt 0.87086 0.75499
vt 0.86987 0.75504
vt 0.86933 0.74034
vt 0.87013 0.77046
vt 0.86926 0.77047
vt 0.86929 0.78367
vt 0.86865 0.78369
vt 0.86922 0.79607
vt 0.86871 0.79610
vt 0.86959 0.80903
vt 0.86903 0.80907
vt 0.87037 0.82107
vt 0.86983 0.82113
vt 0.87362 0.84606
vt 0.87308 0.84615
vt 0.82825 0.81368
vt 0.82958 0.81352
vt 0.82583 0.78564
vt 0.82722 0.78562
vt 0.82648 0.79917
vt 0.82852 0.79906
vt 0.87364 0.61456
vt 0.87305 0.61435
vt 0.87762 0.60126
vt 0.87812 0.60160
vt 0.82849 0.61208
vt 0.82600 0.59760
vt 0.82719 0.59755
vt 0.82960 0.61207
vt 0.82195 0.72433
vt 0.82274 0.72422
vt 0.82224 0.71029
vt 0.82332 0.70998
vt 0.82299 0.69719
vt 0.82394 0.69708
vt 0.82395 0.68261
vt 0.82460 0.68252
vt 0.82882 0.62705
vt 0.82985 0.62709
vt 0.87023 0.72574
vt 0.86863 0.72561
vt 0.87163 0.62942
vt 0.87110 0.62933
vt 0.87116 0.64378
vt 0.87042 0.64367
vt 0.87115 0.65782
vt 0.87006 0.65773
vt 0.87096 0.67039
vt 0.86971 0.67024
vt 0.87093 0.68328
vt 0.86948 0.68306
vt 0.87023 0.69839
vt 0.86847 0.69818
vt 0.86973 0.71254
vt 0.86788 0.71235
vt 0.82526 0.66902
vt 0.82622 0.66897
vt 0.82771 0.64130
vt 0.82885 0.64121
vt 0.82627 0.65604
vt 0.82747 0.65599
vt 0.87183 0.83282
vt 0.87126 0.83294
vt 0.85783 0.53089
vt 0.85783 0.52391
vt 0.86266 0.52391
vt 0.86266 0.53089
vt 0.85300 0.53089
vt 0.85300 0.52391
vt 0.85783 0.51692
vt 0.85300 0.51692
vt 0.86266 0.51692
vt 0.84334 0.52391
vt 0.84817 0.52391
vt 0.84817 0.53089
vt 0.84334 0.53089
vt 0.84817 0.51692
vt 0.84334 0.51692
vt 0.84334 0.50993
vt 0.84334 0.50294
vt 0.84817 0.50294
vt 0.84817 0.50993
vt 0.85300 0.50294
vt 0.85300 0.50993
vt 0.86266 0.50993
vt 0.85783 0.50993
vt 0.85783 0.50294
vt 0.86266 0.50294
vt 0.88196 0.54130
vt 0.87714 0.54130
vt 0.87714 0.53431
vt 0.88196 0.53431
vt 0.88196 0.54828
vt 0.87714 0.54828
vt 0.87231 0.54130
vt 0.87231 0.54828
vt 0.87231 0.53431
vt 0.87714 0.56226
vt 0.87714 0.55527
vt 0.88196 0.55527
vt 0.88196 0.56226
vt 0.87231 0.55527
vt 0.87231 0.56226
vt 0.86265 0.55527
vt 0.86748 0.55527
vt 0.86748 0.56226
vt 0.86265 0.56226
vt 0.86748 0.54828
vt 0.86265 0.54828
vt 0.86748 0.53431
vt 0.86748 0.54130
vt 0.86265 0.54130
vt 0.86265 0.53431
vt 0.85782 0.54130
vt 0.85782 0.53431
vt 0.85782 0.54828
vt 0.85300 0.54828
vt 0.85300 0.54130
vt 0.85300 0.53431
vt 0.85782 0.56226
vt 0.85782 0.55527
vt 0.85300 0.56226
vt 0.85300 0.55527
vt 0.84334 0.55527
vt 0.84817 0.55527
vt 0.84817 0.56226
vt 0.84334 0.56226
vt 0.84334 0.54828
vt 0.84817 0.54828
vt 0.84817 0.53431
vt 0.84817 0.54130
vt 0.84334 0.54130
vt 0.84334 0.53431
vt 0.82886 0.53431
vt 0.82886 0.54130
vt 0.82403 0.54130
vt 0.82403 0.53431
vt 0.83369 0.53431
vt 0.83369 0.54130
vt 0.83369 0.54828
vt 0.82886 0.54828
vt 0.82403 0.54828
vt 0.83851 0.54130
vt 0.83851 0.53431
vt 0.83851 0.54828
vt 0.83851 0.56226
vt 0.83851 0.55527
vt 0.83369 0.55527
vt 0.83369 0.56226
vt 0.82886 0.56226
vt 0.82403 0.56226
vt 0.82403 0.55527
vt 0.82886 0.55527
vt 0.83851 0.50993
vt 0.83851 0.50294
vt 0.83851 0.51692
vt 0.83369 0.50993
vt 0.83369 0.51692
vt 0.83369 0.50294
vt 0.83851 0.53089
vt 0.83851 0.52391
vt 0.83369 0.53089
vt 0.83369 0.52391
vt 0.82403 0.53089
vt 0.82403 0.52391
vt 0.82886 0.52391
vt 0.82886 0.53089
vt 0.82886 0.51692
vt 0.82403 0.51692
vt 0.82886 0.50294
vt 0.82886 0.50993
vt 0.82403 0.50993
vt 0.82403 0.50294
vt 0.88197 0.50993
vt 0.87714 0.50993
vt 0.87714 0.50294
vt 0.88197 0.50294
vt 0.87714 0.51692
vt 0.88197 0.51692
vt 0.87231 0.50993
vt 0.87231 0.51692
vt 0.87231 0.50294
vt 0.88197 0.52391
vt 0.88197 0.53089
vt 0.87714 0.53089
vt 0.87714 0.52391
vt 0.87231 0.52391
vt 0.87231 0.53089
vt 0.86748 0.53089
vt 0.86748 0.52391
vt 0.86748 0.51692
vt 0.86748 0.50294
vt 0.86748 0.50993
# 340 texture verticies
vn -0.43373 0.39150 0.81154
vn -0.73938 0.32303 0.59074
vn -0.70249 0.14728 0.69629
vn -0.40936 0.30752 0.85898
vn -0.95631 0.15019 0.25084
vn -0.99772 0.02857 0.06116
vn -0.97279 -0.19794 0.12046
vn -0.92797 -0.07193 0.36565
vn -0.85792 -0.36237 -0.36422
vn -0.93084 -0.06891 -0.35888
vn -0.79094 -0.54661 -0.27501
vn -0.89232 -0.40581 0.19770
vn -0.52763 -0.79695 0.29408
vn -0.75779 -0.59434 0.26928
vn -0.70593 -0.70705 -0.04165
vn -0.44917 -0.88884 -0.09057
vn 0.30524 -0.57854 -0.75639
vn 0.15325 -0.44412 -0.88276
vn 0.81130 -0.50362 -0.29693
vn 0.73837 -0.67032 -0.07400
vn -0.05337 -0.38589 -0.92100
vn 0.82856 -0.35566 -0.43243
vn 0.99277 -0.09379 0.07485
vn 0.98288 0.01943 0.18323
vn 0.90420 -0.14540 0.40160
vn 0.93603 -0.32634 0.13171
vn 0.78833 0.16064 0.59391
vn 0.63034 0.11254 0.76812
vn 0.54377 0.00082 0.83923
vn 0.78464 -0.36950 0.49780
vn 0.37229 -0.15611 0.91489
vn 0.55461 -0.56321 0.61254
vn 0.15321 -0.25757 0.95404
vn 0.20687 -0.74600 0.63300
vn -0.17534 0.03294 0.98396
vn -0.40804 -0.47208 0.78143
vn -0.08356 -0.37727 0.92232
vn -0.04378 0.04062 0.99821
vn -0.47061 0.17105 0.86560
vn -0.69952 -0.02601 0.71414
vn -0.53626 -0.11778 0.83579
vn -0.33767 0.10404 0.93550
vn -0.86402 -0.28533 0.41480
vn 0.82196 -0.51657 0.23989
vn -0.19530 -0.97856 0.06535
vn -0.20008 -0.90872 0.36632
vn 0.57904 -0.72786 0.36733
vn 0.18932 -0.89441 0.40519
vn -0.16552 -0.81839 0.55031
vn -0.51143 -0.74885 0.42149
vn 0.31535 -0.72379 -0.61375
vn 0.48758 -0.87104 0.05959
vn 0.13480 -0.97554 0.17367
vn -0.55106 0.47952 0.68293
vn -0.68482 0.49722 0.53273
vn -0.19436 -0.37406 -0.90681
vn -0.86971 0.16314 -0.46582
vn -0.27403 -0.25217 -0.92807
vn -0.95079 0.30869 0.02676
vn -0.87021 0.42632 0.24695
vn 0.91311 -0.07621 -0.40052
vn 0.98397 0.17823 0.00571
vn 0.90642 0.41099 -0.09746
vn 0.81294 0.15286 -0.56192
vn 0.75465 0.61388 -0.23163
vn 0.55829 0.25199 -0.79045
vn 0.50311 0.77361 -0.38524
vn 0.33178 0.30995 -0.89098
vn -0.76599 0.40532 -0.49898
vn -0.34215 -0.08601 -0.93570
vn 0.42370 0.42205 0.80147
vn 0.35917 0.34127 0.86864
vn 0.85592 0.32808 0.39971
vn 0.96528 0.24923 0.07819
vn -0.75547 0.62445 0.19830
vn -0.59129 0.62796 0.50600
vn -0.49649 0.78044 0.38001
vn -0.58562 0.81050 0.01158
vn -0.27916 0.91818 0.28108
vn -0.29074 0.95124 -0.10305
vn 0.20324 0.64943 0.73276
vn 0.38695 0.89145 0.23576
vn 0.04389 0.96375 0.26319
vn -0.01951 0.72437 0.68913
vn 0.39375 0.58191 0.71157
vn 0.48642 0.52112 0.70131
vn 0.79838 0.51979 0.30398
vn 0.65680 0.69657 0.28879
vn 0.89318 0.44932 0.01877
vn -0.82136 0.56613 -0.06975
vn 0.14017 0.55782 -0.81804
vn 0.13462 0.91967 -0.36889
vn -0.59619 0.77934 -0.19283
vn -0.27421 0.91508 -0.29571
vn 0.09433 0.98397 -0.15132
vn 0.51953 0.84315 -0.13848
vn -0.51781 0.52933 -0.67207
vn -0.17079 -0.12968 -0.97674
vn -0.20207 0.70188 -0.68303
vn 0.77483 0.63014 -0.05073
vn -0.74776 -0.48582 0.45259
vn -0.18273 -0.51483 -0.83759
vn -0.40069 -0.67863 -0.61555
vn -0.12553 -0.46302 -0.87741
vn -0.28797 -0.75170 -0.59331
vn 0.36134 0.27053 0.89233
vn 0.29629 0.16497 0.94074
vn 0.20504 0.05959 0.97694
vn 0.07117 0.03078 0.99699
vn -0.12466 -0.81512 -0.56572
vn 0.13735 -0.90280 -0.40754
vn 0.06113 -0.44217 -0.89485
vn 0.07740 -0.37487 -0.92384
vn -0.04918 -0.39675 -0.91661
vn 0.00062 -0.38652 -0.92228
vn -0.47442 0.58137 0.66101
vn -0.32544 0.64892 0.68774
vn -0.18096 0.69147 0.69938
vn 0.03620 -0.28691 -0.95727
vn -0.10492 0.00636 -0.99446
vn 0.10963 0.42251 0.89970
vn -0.12620 0.40820 0.90413
vn -0.04845 0.42804 0.90246
vn 0.09832 0.45191 0.88663
vn 0.49932 -0.31867 -0.80569
vn 0.48329 -0.23148 -0.84430
vn 0.35709 -0.28762 -0.88868
vn 0.44706 -0.35025 -0.82308
vn 0.31808 -0.27242 -0.90808
vn 0.09440 -0.39041 -0.91579
vn 0.02389 -0.46979 -0.88246
vn -0.10036 -0.54362 -0.83331
vn -0.08225 -0.56279 -0.82250
vn -0.09774 -0.57821 -0.81001
vn -0.23204 -0.29457 -0.92703
vn -0.25682 -0.31205 -0.91470
vn -0.30629 -0.30286 -0.90248
vn -0.14919 -0.34671 -0.92603
vn -0.22860 -0.33052 -0.91570
vn -0.37971 -0.29579 -0.87654
vn -0.20241 0.48009 0.85355
vn -0.18902 0.46790 0.86333
vn -0.06494 0.44640 0.89247
vn 0.01121 0.43393 0.90087
vn -0.37054 0.53413 0.75988
vn -0.02560 0.40023 0.91606
vn -0.19021 0.48941 0.85105
vn 0.06179 0.26423 0.96248
vn -0.04646 0.41001 0.91090
vn 0.02481 0.21732 0.97579
vn -0.02668 0.40464 0.91408
vn -0.01366 0.25190 0.96766
vn 0.05232 0.43966 0.89664
vn -0.01393 0.29079 0.95668
vn 0.07419 0.44329 0.89330
vn -0.20877 0.32236 0.92331
vn -0.00471 -0.48986 -0.87179
vn -0.02770 -0.50021 -0.86546
vn -0.10875 -0.29789 -0.94839
vn -0.00493 -0.38987 -0.92085
vn -0.00820 -0.31872 -0.94781
vn 0.02856 -0.48727 -0.87278
vn -0.02724 0.40203 0.91522
vn -0.25945 0.44271 0.85831
vn 0.44358 -0.44407 -0.77848
vn 0.37425 -0.46895 -0.80001
vn -0.43757 -0.37908 -0.81537
vn -0.53830 -0.40167 -0.74087
vn -0.53210 -0.55954 -0.63544
vn -0.46178 -0.56117 -0.68691
vn -0.40977 -0.61583 -0.67294
vn -0.32890 -0.58997 -0.73740
vn -0.30669 -0.69244 -0.65305
vn -0.24619 -0.67842 -0.69220
vn 0.31192 -0.55233 -0.77307
vn 0.19381 -0.49563 -0.84663
vn -0.23276 0.41576 0.87919
vn -0.03157 0.41699 0.90836
vn -0.01729 0.39680 0.91774
vn -0.23559 0.48224 0.84377
vn 0.04780 0.29319 0.95486
vn -0.12132 0.43919 0.89016
vn 0.04825 0.14128 0.98879
vn -0.05463 0.35001 0.93515
vn -0.05867 0.10688 0.99254
vn -0.03540 0.37052 0.92815
vn -0.10716 0.18338 0.97718
vn -0.00432 0.30962 0.95085
vn -0.10009 0.27344 0.95667
vn 0.06893 0.37642 0.92388
vn -0.16400 0.34303 0.92490
vn 0.05070 0.40004 0.91509
vn -0.12149 -0.75521 -0.64412
vn -0.06098 -0.70220 -0.70936
vn 0.23619 -0.62333 -0.74543
vn 0.08743 -0.45162 -0.88791
vn 0.11213 -0.75701 -0.64371
vn 0.08876 -0.59135 -0.80151
vn 0.00111 0.37006 0.92901
vn -0.09466 0.27057 0.95804
vn -0.35781 -0.64053 -0.67948
vn -0.32685 -0.85380 -0.40521
vn -0.66575 -0.66576 -0.33695
vn -0.57732 -0.57732 -0.57740
vn -0.03776 -0.73473 -0.67731
vn 0.02551 -0.93359 -0.35743
vn -0.38387 -0.92120 -0.06350
vn -0.03933 -0.99846 0.03916
vn -0.67695 -0.73507 0.03760
vn 0.66575 -0.66576 -0.33696
vn 0.36475 -0.85685 -0.36436
vn 0.33694 -0.66562 -0.66589
vn 0.57732 -0.57732 -0.57741
vn 0.38319 -0.92367 -0.00000
vn 0.70710 -0.70712 -0.00000
vn 0.66575 -0.66576 0.33695
vn 0.57733 -0.57732 0.57740
vn 0.35781 -0.64053 0.67948
vn 0.32685 -0.85380 0.40521
vn 0.00017 -0.70681 0.70740
vn 0.00423 -0.92306 0.38464
vn -0.67940 -0.64054 0.35794
vn -0.37160 -0.87657 0.30584
vn -0.35796 -0.67926 0.64068
vn -0.57733 -0.57732 0.57740
vn -0.32645 -0.40493 0.85409
vn -0.66563 -0.33694 0.66589
vn 0.02549 -0.35665 0.93389
vn -0.40878 -0.02881 0.91218
vn -0.03908 0.03907 0.99847
vn -0.70670 -0.00000 0.70751
vn 0.66563 -0.33694 0.66589
vn 0.36427 -0.36426 0.85710
vn 0.38243 -0.00000 0.92398
vn 0.70670 -0.00000 0.70751
vn 0.33695 0.66562 0.66589
vn 0.36427 0.36426 0.85710
vn 0.66563 0.33694 0.66589
vn 0.57733 0.57732 0.57740
vn 0.02881 0.40876 0.91219
vn -0.03776 0.73473 0.67731
vn -0.66563 0.33694 0.66589
vn -0.33140 0.33140 0.88337
vn -0.35781 0.64053 0.67948
vn -0.57733 0.57732 0.57740
vn -0.30623 0.87653 0.37136
vn -0.66575 0.66576 0.33695
vn 0.06364 0.92119 0.38386
vn 0.00000 1.00000 -0.00000
vn -0.38464 0.92306 -0.00409
vn -0.67695 0.73507 -0.03760
vn 0.67940 0.64054 0.35794
vn 0.40533 0.85386 0.32656
vn 0.67695 0.73507 0.03760
vn 0.38464 0.92306 0.00408
vn 0.35781 0.64053 -0.67948
vn 0.30623 0.87653 -0.37137
vn 0.64905 0.69390 -0.31183
vn 0.60750 0.56163 -0.56171
vn 0.03776 0.73473 -0.67731
vn -0.06364 0.92119 -0.38387
vn -0.67940 0.64054 -0.35794
vn -0.40532 0.85386 -0.32656
vn -0.33694 0.66562 -0.66589
vn -0.57732 0.57732 -0.57740
vn -0.67927 -0.35795 -0.64068
vn -0.37095 -0.30557 -0.87694
vn -0.67662 -0.03756 -0.73537
vn -0.38304 0.06328 -0.92156
vn 0.00000 -0.00000 -1.00000
vn 0.02882 -0.40877 -0.91218
vn -0.36427 0.36426 -0.85710
vn -0.66563 0.33694 -0.66589
vn -0.02881 0.40877 -0.91218
vn 0.64891 0.31183 -0.69404
vn 0.33140 0.33140 -0.88337
vn 0.40878 -0.02881 -0.91218
vn 0.73473 -0.03776 -0.67730
vn 0.64053 -0.35781 -0.67948
vn 0.36427 -0.36426 -0.85710
vn 0.85684 -0.36476 0.36438
vn 0.92366 -0.38321 -0.00000
vn 0.92370 -0.00000 0.38312
vn 1.00000 -0.00000 -0.00000
vn 0.85379 -0.32686 -0.40522
vn 0.93359 0.02551 -0.35742
vn 0.83708 0.38699 -0.38671
vn 0.92366 0.38321 -0.00000
vn 0.85684 0.36476 0.36438
vn -0.85684 0.36476 0.36438
vn -0.92366 0.38321 -0.00000
vn -0.92370 -0.00000 0.38312
vn -1.00000 -0.00000 -0.00000
vn -0.85684 0.36476 -0.36438
vn -0.92370 -0.00000 -0.38312
vn -0.85684 -0.36476 -0.36438
vn -0.92366 -0.38321 -0.00000
vn -0.85684 -0.36476 0.36438
# 298 normals
f  268/282/265 265/283/266 266/284/267 267/285/268
f  271/286/269 272/287/270 269/288/271 270/289/272
f  274/290/273 269/288/271 272/287/270 273/291/274
f  269/288/271 274/290/273 275/292/275 276/293/276
f  280/294/277 277/295/278 278/296/279 279/297/280
f  283/298/281 284/299/282 281/300/283 282/301/284
f  284/299/282 286/302/285 285/303/286 281/300/283
f  290/304/287 287/305/288 288/306/289 289/307/290
f  291/308/291 292/309/292 288/306/289 287/305/288
f  288/306/289 292/309/292 293/310/293 294/311/294
f  295/312/295 296/313/296 294/311/294 293/310/293
f  297/314/297 298/315/298 296/313/296 295/312/295
f  302/316/299 299/317/300 300/318/301 301/319/302
f  306/320/303 303/321/304 304/322/305 305/323/306
f  303/321/304 306/320/303 267/285/268 266/284/267
f  276/293/276 307/324/307 270/289/272 269/288/271
f  289/307/290 288/306/289 294/311/294 308/325/308
f  309/326/309 310/327/310 280/294/277 279/297/280
f  308/325/308 294/311/294 296/313/296 311/328/311
f  298/315/298 312/329/312 311/328/311 296/313/296
f  310/327/310 314/330/313 313/331/314 280/294/277
f  316/332/315 283/298/281 282/301/284 315/333/316
f  317/334/317 312/329/312 310/327/310 309/326/309
f  315/333/316 311/328/311 312/329/312 317/334/317
f  319/335/318 318/336/319 265/337/266 268/338/265
f  322/339/320 273/340/274 320/341/321 321/342/322
f  324/343/323 272/344/270 271/345/269 323/346/324
f  325/347/325 326/348/326 290/304/287 285/303/286
f  328/349/327 326/348/326 325/347/325 327/350/328
f  330/351/329 328/349/327 327/350/328 329/352/330
f  332/353/331 330/351/329 329/352/330 331/354/332
f  321/342/322 320/341/321 333/355/333 334/356/334
f  336/357/335 337/358/336 291/308/291 335/359/337
f  287/305/288 290/304/287 326/348/326 338/360/338
f  340/361/339 323/346/324 318/336/319 339/362/340
f  341/363/341 342/364/342 340/361/339 339/362/340
f  343/365/343 344/366/344 342/364/342 341/363/341
f  348/367/345 345/368/346 346/369/347 347/370/348
f  351/371/349 352/372/350 349/373/351 350/374/352
f  352/372/350 336/357/335 335/359/337 349/373/351
f  326/348/326 328/349/327 353/375/353 338/360/338
f  354/376/354 324/343/323 323/346/324 340/361/339
f  355/377/355 356/378/356 332/353/331 331/354/332
f  354/376/354 340/361/339 342/364/342 357/379/357
f  344/366/344 358/380/358 357/379/357 342/364/342
f  356/378/356 360/381/359 359/382/360 332/353/331
f  334/356/334 333/355/333 361/383/361 362/384/362
f  363/385/363 358/380/358 356/378/356 355/377/355
f  358/380/358 363/385/363 361/383/361 357/379/357
f  330/351/329 332/353/331 359/382/360 364/386/364
f  350/374/352 364/386/364 359/382/360 345/368/346
f  364/386/364 353/375/353 328/349/327 330/351/329
f  277/295/278 280/294/277 313/331/314 365/387/365
f  365/387/365 313/331/314 299/317/300 304/322/305
f  275/292/275 367/388/366 366/389/367 278/296/279
f  307/324/307 276/293/276 277/295/278 365/387/365
f  314/330/313 310/327/310 312/329/312 298/315/298
f  300/318/301 314/330/313 298/315/298 297/314/297
f  360/381/359 356/378/356 358/380/358 344/366/344
f  346/369/347 360/381/359 344/366/344 343/365/343
f  265/283/266 271/286/269 270/289/272 266/284/267
f  274/290/273 273/291/274 322/390/320 368/391/368
f  275/292/275 274/290/273 368/391/368 367/388/366
f  278/296/279 366/389/367 369/392/369 279/297/280
f  281/300/283 289/307/290 308/325/308 282/301/284
f  285/303/286 290/304/287 289/307/290 281/300/283
f  292/309/292 291/308/291 337/358/336 370/393/370
f  370/393/370 371/394/371 293/310/293 292/309/292
f  293/310/293 371/394/371 372/395/372 295/312/295
f  295/312/295 372/395/372 373/396/373 297/314/297
f  299/317/300 313/331/314 314/330/313 300/318/301
f  365/387/365 304/322/305 303/321/304 307/324/307
f  266/284/267 270/289/272 307/324/307 303/321/304
f  279/297/280 369/392/369 374/397/374 309/326/309
f  282/301/284 308/325/308 311/328/311 315/333/316
f  309/326/309 374/397/374 375/398/375 317/334/317
f  375/398/375 316/332/315 315/333/316 317/334/317
f  265/337/266 318/336/319 323/346/324 271/345/269
f  273/340/274 272/344/270 324/343/323 320/341/321
f  286/302/285 376/399/376 325/347/325 285/303/286
f  376/399/376 377/400/377 327/350/328 325/347/325
f  377/400/377 378/401/378 329/352/330 327/350/328
f  329/352/330 378/401/378 379/402/379 331/354/332
f  320/341/321 324/343/323 354/376/354 333/355/333
f  335/359/337 291/308/291 287/305/288 338/360/338
f  318/336/319 319/335/318 380/403/380 339/362/340
f  339/362/340 380/403/380 381/404/381 341/363/341
f  341/363/341 381/404/381 382/405/382 343/365/343
f  345/368/346 359/382/360 360/381/359 346/369/347
f  350/374/352 349/373/351 353/375/353 364/386/364
f  349/373/351 335/359/337 338/360/338 353/375/353
f  331/354/332 379/402/379 383/406/383 355/377/355
f  333/355/333 354/376/354 357/379/357 361/383/361
f  355/377/355 383/406/383 384/407/384 363/385/363
f  384/407/384 362/384/362 361/383/361 363/385/363
f  350/374/352 345/368/346 348/367/345 351/371/349
f  304/322/305 299/317/300 302/316/299 305/323/306
f  276/293/276 275/292/275 278/296/279 277/295/278
f  297/314/297 373/396/373 301/319/302 300/318/301
f  343/365/343 382/405/382 347/370/348 346/369/347
f  388/408/385 385/409/386 386/410/387 387/411/388
f  391/412/389 392/413/390 389/414/391 390/415/392
f  394/416/393 393/417/394 389/414/391 392/413/390
f  396/418/395 395/419/396 393/417/394 394/416/393
f  398/420/397 397/421/398 395/419/396 396/418/395
f  401/422/399 402/423/400 399/424/401 400/425/402
f  402/423/400 404/426/403 403/427/404 399/424/401
f  407/428/405 408/429/406 405/430/407 406/431/408
f  410/432/409 409/433/410 405/430/407 408/429/406
f  412/434/411 411/435/412 409/433/410 410/432/409
f  414/436/413 413/437/414 411/435/412 412/434/411
f  416/438/415 415/439/416 413/437/414 414/436/413
f  418/440/417 417/441/418 415/439/416 416/438/415
f  420/442/419 387/411/388 386/410/387 419/443/420
f  422/444/421 421/445/422 397/421/398 398/420/397
f  424/446/423 401/422/399 400/425/402 423/447/424
f  426/448/425 425/449/426 421/445/422 422/444/421
f  426/448/425 424/446/423 423/447/424 425/449/426
f  428/450/427 427/451/428 385/452/386 388/453/385
f  430/454/429 391/455/389 390/456/392 429/457/430
f  432/458/431 431/459/432 403/427/404 404/426/403
f  434/460/433 433/461/434 431/459/432 432/458/431
f  436/462/435 435/463/436 433/461/434 434/460/433
f  438/464/437 437/465/438 435/463/436 436/462/435
f  440/466/439 430/454/429 429/457/430 439/467/440
f  442/468/441 407/428/405 406/431/408 441/469/442
f  444/470/443 443/471/444 427/451/428 428/450/427
f  446/472/445 445/473/446 443/471/444 444/470/443
f  448/474/447 447/475/448 445/473/446 446/472/445
f  450/476/449 449/477/450 447/475/448 448/474/447
f  450/476/449 452/478/451 451/479/452 449/477/450
f  452/478/451 454/480/453 453/481/454 451/479/452
f  454/480/453 456/482/455 455/483/456 453/481/454
f  456/482/455 442/468/441 441/469/442 455/483/456
f  458/484/457 457/485/458 437/465/438 438/464/437
f  460/486/459 440/466/439 439/467/440 459/487/460
f  462/488/461 461/489/462 457/485/458 458/484/457
f  460/486/459 459/487/460 461/489/462 462/488/461
f  418/440/417 464/490/463 463/491/464 417/441/418
f  464/490/463 420/442/419 419/443/420 463/491/464
f  267/285/268 386/410/387 385/409/386 268/282/265
f  284/299/282 283/298/281 400/425/402 399/424/401
f  286/302/285 284/299/282 399/424/401 403/427/404
f  301/319/302 415/439/416 417/441/418 302/316/299
f  305/323/306 463/491/464 419/443/420 306/320/303
f  267/285/268 306/320/303 419/443/420 386/410/387
f  283/298/281 316/332/315 423/447/424 400/425/402
f  268/338/265 385/452/386 427/451/428 319/335/318
f  322/339/320 321/342/322 429/457/430 390/456/392
f  321/342/322 334/356/334 439/467/440 429/457/430
f  337/358/336 336/357/335 441/469/442 406/431/408
f  348/367/345 347/370/348 449/477/450 451/479/452
f  352/372/350 351/371/349 453/481/454 455/483/456
f  336/357/335 352/372/350 455/483/456 441/469/442
f  334/356/334 362/384/362 459/487/460 439/467/440
f  395/419/396 366/389/367 367/388/366 393/417/394
f  368/391/368 322/390/320 390/415/392 389/414/391
f  367/388/366 368/391/368 389/414/391 393/417/394
f  397/421/398 369/392/369 366/389/367 395/419/396
f  370/393/370 337/358/336 406/431/408 405/430/407
f  370/393/370 405/430/407 409/433/410 371/394/371
f  371/394/371 409/433/410 411/435/412 372/395/372
f  372/395/372 411/435/412 413/437/414 373/396/373
f  369/392/369 397/421/398 421/445/422 374/397/374
f  374/397/374 421/445/422 425/449/426 375/398/375
f  316/332/315 375/398/375 425/449/426 423/447/424
f  431/459/432 376/399/376 286/302/285 403/427/404
f  433/461/434 377/400/377 376/399/376 431/459/432
f  435/463/436 378/401/378 377/400/377 433/461/434
f  437/465/438 379/402/379 378/401/378 435/463/436
f  319/335/318 427/451/428 443/471/444 380/403/380
f  380/403/380 443/471/444 445/473/446 381/404/381
f  447/475/448 382/405/382 381/404/381 445/473/446
f  379/402/379 437/465/438 457/485/458 383/406/383
f  383/406/383 457/485/458 461/489/462 384/407/384
f  362/384/362 384/407/384 461/489/462 459/487/460
f  351/371/349 348/367/345 451/479/452 453/481/454
f  302/316/299 417/441/418 463/491/464 305/323/306
f  415/439/416 301/319/302 373/396/373 413/437/414
f  382/405/382 447/475/448 449/477/450 347/370/348
f  497/492/465 539/493/466 496/494/467 465/495/468
f  476/496/469 516/497/470 539/493/466 497/492/465
f  515/498/471 539/493/466 516/497/470 485/499/472
f  496/494/467 539/493/466 515/498/471 475/500/473
f  491/501/474 540/502/475 498/503/476 466/504/477
f  517/505/478 540/502/475 491/501/474 473/506/479
f  516/497/470 540/502/475 517/505/478 485/499/472
f  498/503/476 540/502/475 516/497/470 476/496/469
f  492/507/480 467/508/481 493/509/482 541/510/483
f  474/511/484 518/512/485 541/510/483 493/509/482
f  517/505/478 541/510/483 518/512/485 485/499/472
f  492/507/480 541/510/483 517/505/478 473/506/479
f  495/513/486 542/514/487 494/515/488 468/516/489
f  475/500/473 515/498/471 542/514/487 495/513/486
f  485/499/472 518/512/485 542/514/487 515/498/471
f  494/515/488 542/514/487 518/512/485 474/511/484
f  494/517/488 543/518/490 504/519/491 468/520/489
f  474/521/484 520/522/492 543/518/490 494/517/488
f  519/523/493 543/518/490 520/522/492 486/524/494
f  504/519/491 543/518/490 519/523/493 479/525/495
f  499/526/496 544/527/497 493/528/482 467/529/481
f  521/530/498 544/527/497 499/526/496 477/531/499
f  520/522/492 544/527/497 521/530/498 486/524/494
f  493/528/482 544/527/497 520/522/492 474/521/484
f  501/532/500 545/533/501 500/534/502 469/535/503
f  522/536/504 545/533/501 501/532/500 478/537/505
f  521/530/498 545/533/501 522/536/504 486/524/494
f  500/534/502 545/533/501 521/530/498 477/531/499
f  503/538/506 546/539/507 502/540/508 470/541/509
f  519/523/493 546/539/507 503/538/506 479/525/495
f  486/524/494 522/536/504 546/539/507 519/523/493
f  502/540/508 546/539/507 522/536/504 478/537/505
f  502/540/508 547/542/510 510/543/511 470/541/509
f  478/537/505 524/544/512 547/542/510 502/540/508
f  487/545/513 523/546/514 547/542/510 524/544/512
f  510/543/511 547/542/510 523/546/514 482/547/515
f  505/548/516 548/549/517 501/532/500 469/535/503
f  480/550/518 525/551/519 548/549/517 505/548/516
f  524/544/512 548/549/517 525/551/519 487/545/513
f  501/532/500 548/549/517 524/544/512 478/537/505
f  507/552/520 549/553/521 506/554/522 471/555/523
f  481/556/524 526/557/525 549/553/521 507/552/520
f  487/545/513 525/551/519 549/553/521 526/557/525
f  506/554/522 549/553/521 525/551/519 480/550/518
f  509/558/526 550/559/527 508/560/528 472/561/529
f  482/547/515 523/546/514 550/559/527 509/558/526
f  526/557/525 550/559/527 523/546/514 487/545/513
f  508/560/528 550/559/527 526/557/525 481/556/524
f  513/562/530 551/563/531 497/564/465 465/565/468
f  484/566/532 528/567/533 551/563/531 513/562/530
f  488/568/534 527/569/535 551/563/531 528/567/533
f  497/564/465 551/563/531 527/569/535 476/570/469
f  508/560/528 552/571/536 514/572/537 472/561/529
f  529/573/538 552/571/536 508/560/528 481/556/524
f  528/567/533 552/571/536 529/573/538 488/568/534
f  514/572/537 552/571/536 528/567/533 484/566/532
f  511/574/539 553/575/540 507/552/520 471/555/523
f  530/576/541 553/575/540 511/574/539 483/577/542
f  488/568/534 529/573/538 553/575/540 530/576/541
f  507/552/520 553/575/540 529/573/538 481/556/524
f  512/578/543 466/579/477 498/580/476 554/581/544
f  527/569/535 554/581/544 498/580/476 476/570/469
f  530/576/541 554/581/544 527/569/535 488/568/534
f  512/578/543 554/581/544 530/576/541 483/577/542
f  492/507/480 555/582/545 499/583/496 467/508/481
f  532/584/546 555/582/545 492/507/480 473/506/479
f  531/585/547 555/582/545 532/584/546 489/586/548
f  499/583/496 555/582/545 531/585/547 477/587/499
f  512/588/543 556/589/549 491/501/474 466/504/477
f  483/590/542 533/591/550 556/589/549 512/588/543
f  532/584/546 556/589/549 533/591/550 489/586/548
f  491/501/474 556/589/549 532/584/546 473/506/479
f  471/592/523 506/593/522 557/594/551 511/595/539
f  534/596/552 557/594/551 506/593/522 480/597/518
f  533/591/550 557/594/551 534/596/552 489/586/548
f  511/595/539 557/594/551 533/591/550 483/590/542
f  500/598/502 558/599/553 505/600/516 469/601/503
f  531/585/547 558/599/553 500/598/502 477/587/499
f  534/596/552 558/599/553 531/585/547 489/586/548
f  505/600/516 558/599/553 534/596/552 480/597/518
f  510/602/511 559/603/554 503/604/506 470/605/509
f  536/606/555 559/603/554 510/602/511 482/607/515
f  535/608/556 559/603/554 536/606/555 490/609/557
f  503/604/506 559/603/554 535/608/556 479/610/495
f  509/611/526 472/612/529 514/613/537 560/614/558
f  537/615/559 560/614/558 514/613/537 484/616/532
f  536/606/555 560/614/558 537/615/559 490/609/557
f  509/611/526 560/614/558 536/606/555 482/607/515
f  513/617/530 465/495/468 496/494/467 561/618/560
f  538/619/561 561/618/560 496/494/467 475/500/473
f  537/615/559 561/618/560 538/619/561 490/609/557
f  513/617/530 561/618/560 537/615/559 484/616/532
f  504/620/491 562/621/562 495/513/486 468/516/489
f  535/608/556 562/621/562 504/620/491 479/610/495
f  538/619/561 562/621/562 535/608/556 490/609/557
f  495/513/486 562/621/562 538/619/561 475/500/473
